<svg width="32" height="32" viewBox="0 0 32 32" fill="none" xmlns="http://www.w3.org/2000/svg">
<rect x="31.5" y="31.5" width="31" height="31" rx="7.5" transform="rotate(-180 31.5 31.5)" fill="#F7F7FF"/>
<rect x="31.5" y="31.5" width="31" height="31" rx="7.5" transform="rotate(-180 31.5 31.5)" stroke="#D1CFEB"/>
<path d="M9.02734 16.4727L16.4062 22.877C16.4629 22.9258 16.5352 22.9531 16.6113 22.9531H18.3398C18.4844 22.9531 18.5508 22.7734 18.4414 22.6797L11.6016 16.7422H23.0312C23.1172 16.7422 23.1875 16.6719 23.1875 16.5859V15.4141C23.1875 15.3281 23.1172 15.2578 23.0312 15.2578L11.6035 15.2578L18.4434 9.32031C18.5527 9.22461 18.4863 9.04688 18.3418 9.04688H16.5547C16.5176 9.04688 16.4805 9.06055 16.4531 9.08594L9.02734 15.5273C8.95973 15.5861 8.90552 15.6588 8.86837 15.7403C8.83121 15.8218 8.81199 15.9104 8.81199 16C8.81199 16.0896 8.83121 16.1782 8.86837 16.2597C8.90552 16.3412 8.95973 16.4139 9.02734 16.4727Z" fill="#212025"/>
</svg>
