<svg width="32" height="32" viewBox="0 0 32 32" fill="none" xmlns="http://www.w3.org/2000/svg">
<rect x="0.5" y="0.5" width="31" height="31" rx="7.5" fill="#F7F7FF"/>
<rect x="0.5" y="0.5" width="31" height="31" rx="7.5" stroke="#D1CFEB"/>
<path d="M22.9727 15.5273L15.5938 9.12305C15.5371 9.07422 15.4648 9.04688 15.3887 9.04688H13.6602C13.5156 9.04688 13.4492 9.22656 13.5586 9.32031L20.3984 15.2578H8.96875C8.88281 15.2578 8.8125 15.3281 8.8125 15.4141V16.5859C8.8125 16.6719 8.88281 16.7422 8.96875 16.7422H20.3965L13.5566 22.6797C13.4473 22.7754 13.5137 22.9531 13.6582 22.9531H15.4453C15.4824 22.9531 15.5195 22.9395 15.5469 22.9141L22.9727 16.4727C23.0403 16.4139 23.0945 16.3412 23.1316 16.2597C23.1688 16.1782 23.188 16.0896 23.188 16C23.188 15.9104 23.1688 15.8218 23.1316 15.7403C23.0945 15.6588 23.0403 15.5861 22.9727 15.5273Z" fill="#212025"/>
</svg>
