<svg width="32" height="32" viewBox="0 0 32 32" fill="none" xmlns="http://www.w3.org/2000/svg">
<rect width="32" height="32" rx="8" fill="#F7F7FF"/>
<path fill-rule="evenodd" clip-rule="evenodd" d="M21.0599 9.92394C21.0604 9.92406 21.0607 9.92425 21.0614 9.92497L22.0755 10.9391C22.0762 10.9398 22.0764 10.9401 22.0765 10.9405C22.0767 10.9409 22.0767 10.9414 22.0765 10.9417C22.0764 10.9421 22.0762 10.9425 22.0755 10.9432L17.0182 16.0005L22.0755 21.0578C22.0762 21.0585 22.0764 21.0588 22.0765 21.0592C22.0767 21.0596 22.0767 21.0601 22.0765 21.0605C22.0764 21.0608 22.0762 21.0612 22.0755 21.0619L21.0614 22.076C21.0607 22.0767 21.0604 22.0769 21.0599 22.077C21.0596 22.0772 21.0591 22.0772 21.0587 22.077C21.0583 22.0769 21.058 22.0767 21.0573 22.076L16 17.0187L10.9427 22.076C10.942 22.0767 10.9417 22.0769 10.9413 22.077C10.9409 22.0772 10.9404 22.0772 10.94 22.077C10.9396 22.0769 10.9393 22.0767 10.9386 22.076L9.92448 21.0619C9.92376 21.0612 9.92357 21.0609 9.92345 21.0604C9.9233 21.06 9.9233 21.0596 9.92345 21.0592C9.92357 21.0588 9.92376 21.0585 9.92448 21.0578L14.9817 16.0005L9.92448 10.9432C9.92376 10.9425 9.92357 10.9421 9.92345 10.9417C9.92333 10.9413 9.92333 10.9409 9.92345 10.9405C9.92357 10.9401 9.92376 10.9398 9.92448 10.9391L10.9386 9.92497C10.9393 9.92425 10.9396 9.92406 10.94 9.92394C10.9404 9.92379 10.9409 9.92379 10.9413 9.92394C10.9417 9.92406 10.942 9.92425 10.9427 9.92497L16 14.9822L21.0573 9.92497C21.058 9.92425 21.0583 9.92406 21.0587 9.92394C21.0591 9.92381 21.0596 9.92381 21.06 9.92394H21.0599Z" fill="#6157FF"/>
</svg>
