<svg width="48" height="49" viewBox="0 0 48 49" fill="none" xmlns="http://www.w3.org/2000/svg">
<path d="M24 0.5C10.7464 0.5 0 11.2464 0 24.5C0 37.7536 10.7464 48.5 24 48.5C37.2536 48.5 48 37.7536 48 24.5C48 11.2464 37.2536 0.5 24 0.5ZM34.3661 16.6625L23.0839 32.3054C22.9262 32.5254 22.7184 32.7048 22.4775 32.8285C22.2367 32.9522 21.9699 33.0167 21.6991 33.0167C21.4284 33.0167 21.1615 32.9522 20.9207 32.8285C20.6798 32.7048 20.472 32.5254 20.3143 32.3054L13.6339 23.0482C13.4304 22.7643 13.6339 22.3679 13.9821 22.3679H16.4946C17.0411 22.3679 17.5607 22.6304 17.8821 23.0804L21.6964 28.3732L30.1179 16.6946C30.4393 16.25 30.9536 15.9821 31.5054 15.9821H34.0179C34.3661 15.9821 34.5696 16.3786 34.3661 16.6625Z" fill="#6157FF"/>
</svg>
