<svg width="114" height="113" viewBox="0 0 114 113" fill="none" xmlns="http://www.w3.org/2000/svg">
<path d="M57 7.0625C29.699 7.0625 7.5625 29.199 7.5625 56.5C7.5625 83.801 29.699 105.938 57 105.938C84.301 105.938 106.438 83.801 106.438 56.5C106.438 29.199 84.301 7.0625 57 7.0625ZM78.353 40.3556L55.113 72.5782C54.7882 73.0316 54.36 73.401 53.8639 73.6558C53.3678 73.9107 52.8181 74.0436 52.2604 74.0436C51.7027 74.0436 51.153 73.9107 50.6569 73.6558C50.1608 73.401 49.7326 73.0316 49.4078 72.5782L35.647 53.5095C35.2276 52.9246 35.647 52.108 36.3643 52.108H41.5397C42.6653 52.108 43.7357 52.6487 44.3979 53.5757L52.2549 64.4784L69.6021 40.4218C70.2643 39.5059 71.3236 38.9541 72.4603 38.9541H77.6357C78.353 38.9541 78.7724 39.7707 78.353 40.3556Z" fill="#1CD44C"/>
</svg>
