<svg width="24" height="24" viewBox="0 0 24 24" fill="none" xmlns="http://www.w3.org/2000/svg" stroke="currentColor">
<path d="M20.4502 20.2031C20.2735 20.2535 16.0643 21.4437 11.5571 21.4437C7.04984 21.4437 2.84065 20.2535 2.66388 20.2031C1.22777 19.7917 0.396305 18.2971 0.808852 16.8651C1.22098 15.433 2.71845 14.6047 4.15409 15.0162C4.1906 15.0265 7.83255 16.0481 11.557 16.0481C15.2815 16.0481 18.9234 15.0265 18.9599 15.0162C20.3956 14.6047 21.893 15.433 22.3052 16.8651C22.7178 18.2971 21.8863 19.7917 20.4502 20.2031Z" stroke-width="1.40625" stroke-miterlimit="10" stroke-linecap="round" stroke-linejoin="round"/>
<path d="M17.4654 15.3723L13.7355 11.6485L12.3428 13.0389L3.84155 4.55167L4.92038 3.47462C6.14897 2.24804 8.14097 2.24804 9.36957 3.47462L15.6459 9.74068L21.5597 15.6448M20.8548 20.0517C20.8548 20.0517 21.4915 21.5008 23.2969 21.4437M10.1508 21.4064V16.0027M12.9633 21.4064V16.0027" stroke-width="1.40625" stroke-miterlimit="10" stroke-linecap="round" stroke-linejoin="round"/>
</svg>
