<svg width="24" height="24" viewBox="0 0 24 24" fill="none" xmlns="http://www.w3.org/2000/svg" stroke="currentColor">
<path d="M9.06 11.9L17.13 3.84004C17.3931 3.56848 17.7075 3.35198 18.0551 3.20315C18.4026 3.05431 18.7763 2.97612 19.1544 2.97311C19.5324 2.97011 19.9073 3.04236 20.2572 3.18565C20.6071 3.32895 20.9249 3.54043 21.1923 3.80777C21.4596 4.07511 21.6711 4.39297 21.8144 4.74284C21.9577 5.09271 22.0299 5.4676 22.0269 5.84566C22.0239 6.22373 21.9457 6.59742 21.7969 6.94497C21.6481 7.29252 21.4316 7.60698 21.16 7.87004L13.1 15.95" stroke-width="2" stroke-linecap="round" stroke-linejoin="round"/>
<path d="M7.07002 14.9399C5.41002 14.9399 4.07002 16.2899 4.07002 17.9599C4.07002 19.2899 1.57002 19.4799 2.07002 19.9799C3.15002 21.0799 4.56002 21.9999 6.07002 21.9999C8.27002 21.9999 10.07 20.1999 10.07 17.9599C10.0713 17.5647 9.99478 17.173 9.84473 16.8073C9.69468 16.4416 9.47407 16.1091 9.19549 15.8286C8.91691 15.5482 8.58583 15.3254 8.22114 15.1729C7.85645 15.0204 7.4653 14.9413 7.07002 14.9399Z" stroke-width="2" stroke-linecap="round" stroke-linejoin="round"/>
</svg>
