<svg width="24" height="24" viewBox="0 0 24 24" fill="currentColor" xmlns="http://www.w3.org/2000/svg">
<path d="M20.25 12.051L20.25 1.60197L2.835 1.60197L2.835 12.051C2.83563 12.605 3.05601 13.1362 3.44779 13.528C3.83956 13.9198 4.37075 14.1401 4.9248 14.1408L8.69589 14.1408L8.12663 18.7672L8.12367 18.7967C8.08591 19.2686 8.14627 19.7433 8.30095 20.1908C8.45563 20.6382 8.70128 21.0488 9.02243 21.3967C9.34359 21.7446 9.73329 22.0222 10.167 22.2121C10.6007 22.402 11.069 22.5 11.5425 22.5C12.016 22.5 12.4843 22.402 12.918 22.2121C13.3517 22.0222 13.7414 21.7446 14.0626 21.3967C14.3837 21.0488 14.6294 20.6382 14.7841 20.1908C14.9387 19.7433 14.9991 19.2686 14.9613 18.7967L14.9602 18.782L14.3891 14.1408L18.1602 14.1408C18.7143 14.1401 19.2454 13.9198 19.6372 13.528C20.029 13.1362 20.2494 12.605 20.25 12.051ZM4.2282 2.99517L18.8568 2.99517L18.8568 9.26457L4.2282 9.26457L4.2282 2.99517ZM12.8138 12.7476L13.5736 18.9215C13.5942 19.2009 13.557 19.4814 13.4643 19.7457C13.3716 20.01 13.2253 20.2523 13.0347 20.4575C12.8441 20.6627 12.6132 20.8264 12.3565 20.9384C12.0997 21.0503 11.8227 21.1081 11.5426 21.1081C11.2625 21.1081 10.9854 21.0503 10.7287 20.9384C10.472 20.8264 10.2411 20.6627 10.0504 20.4575C9.85983 20.2523 9.71359 20.01 9.62087 19.7457C9.52815 19.4814 9.49094 19.2009 9.51156 18.9215L10.271 12.7476L4.9248 12.7476C4.74012 12.7473 4.56307 12.6739 4.43248 12.5433C4.3019 12.4127 4.22843 12.2357 4.2282 12.051L4.2282 10.6578L18.8568 10.6578L18.8568 12.051C18.8566 12.2357 18.7831 12.4127 18.6525 12.5433C18.5219 12.6739 18.3449 12.7473 18.1602 12.7476L12.8138 12.7476Z" />
</svg>
