<svg width="20" height="20" viewBox="0 0 20 20" fill="none" xmlns="http://www.w3.org/2000/svg">
<path d="M10.0003 14.1667C10.4606 14.1667 10.8337 13.7936 10.8337 13.3333C10.8337 12.8731 10.4606 12.5 10.0003 12.5C9.54009 12.5 9.16699 12.8731 9.16699 13.3333C9.16699 13.7936 9.54009 14.1667 10.0003 14.1667Z" stroke="#74737C" stroke-width="2" stroke-linecap="round" stroke-linejoin="round"/>
<path d="M15.8333 8.33301H4.16667C3.24619 8.33301 2.5 9.0792 2.5 9.99967V16.6663C2.5 17.5868 3.24619 18.333 4.16667 18.333H15.8333C16.7538 18.333 17.5 17.5868 17.5 16.6663V9.99967C17.5 9.0792 16.7538 8.33301 15.8333 8.33301Z" stroke="#74737C" stroke-width="2" stroke-linecap="round" stroke-linejoin="round"/>
<path d="M5.83301 8.33366V5.83366C5.83301 4.72859 6.27199 3.66878 7.0534 2.88738C7.8348 2.10598 8.89461 1.66699 9.99967 1.66699C11.1047 1.66699 12.1646 2.10598 12.946 2.88738C13.7274 3.66878 14.1663 4.72859 14.1663 5.83366V8.33366" stroke="#74737C" stroke-width="2" stroke-linecap="round" stroke-linejoin="round"/>
</svg>
