<svg width="56" height="56" viewBox="0 0 56 56" fill="none" xmlns="http://www.w3.org/2000/svg">
<path fill-rule="evenodd" clip-rule="evenodd" d="M28 56C43.464 56 56 43.464 56 28C56 12.536 43.464 0 28 0C12.536 0 0 12.536 0 28C0 43.464 12.536 56 28 56ZM40.5397 44.5647C42.2585 43.4219 42.2435 41.0179 40.784 39.5584C39.3245 38.0989 36.9681 38.1707 35.1149 39.0794C34.2373 39.5097 33.3032 39.827 32.3343 40.0198C30.1342 40.4574 27.8538 40.2328 25.7814 39.3744C23.709 38.5159 21.9377 37.0623 20.6915 35.1971C19.4452 33.332 18.78 31.1392 18.78 28.8961C18.78 26.6529 19.4452 24.4601 20.6915 22.595C21.9377 20.7299 23.709 19.2762 25.7814 18.4178C27.8538 17.5594 30.1342 17.3348 32.3343 17.7724C33.3032 17.9651 34.2373 18.2825 35.1149 18.7127C36.9681 19.6214 39.3245 19.6932 40.784 18.2337C42.2435 16.7743 42.2585 14.3702 40.5397 13.2274C38.5039 11.8739 36.2136 10.9232 33.7925 10.4416C30.1425 9.7156 26.3593 10.0882 22.9211 11.5124C19.4829 12.9365 16.5443 15.3482 14.4767 18.4425C12.4092 21.5367 11.3057 25.1746 11.3057 28.8961C11.3057 32.6175 12.4092 36.2554 14.4767 39.3497C16.5443 42.444 19.4829 44.8557 22.9211 46.2798C26.3593 47.7039 30.1425 48.0766 33.7925 47.3505C36.2136 46.8689 38.5039 45.9183 40.5397 44.5647Z" fill="url(#paint0_linear_95_6675)"/>
<defs>
<linearGradient id="paint0_linear_95_6675" x1="7.94588" y1="2.688" x2="59.0179" y2="65.856" gradientUnits="userSpaceOnUse">
<stop stop-color="#6157FF"/>
<stop offset="1" stop-color="#5D55DD"/>
</linearGradient>
</defs>
</svg>
