<svg width="32" height="32" viewBox="0 0 32 32" fill="none" xmlns="http://www.w3.org/2000/svg">
<rect x="0.5" y="0.5" width="31" height="31" rx="7.5" fill="#F7F7FF"/>
<rect x="0.5" y="0.5" width="31" height="31" rx="7.5" stroke="#D1CFEB"/>
<path d="M11.0332 20.6875C11.0723 20.6875 11.1113 20.6836 11.1504 20.6777L14.4355 20.1016C14.4746 20.0938 14.5117 20.0762 14.5391 20.0469L22.8184 11.7676C22.8365 11.7495 22.8508 11.728 22.8606 11.7044C22.8704 11.6808 22.8755 11.6555 22.8755 11.6299C22.8755 11.6043 22.8704 11.579 22.8606 11.5553C22.8508 11.5317 22.8365 11.5103 22.8184 11.4922L19.5723 8.24414C19.5352 8.20703 19.4863 8.1875 19.4336 8.1875C19.3809 8.1875 19.332 8.20703 19.2949 8.24414L11.0156 16.5234C10.9863 16.5527 10.9688 16.5879 10.9609 16.627L10.3848 19.9121C10.3658 20.0167 10.3726 20.1244 10.4045 20.2258C10.4365 20.3273 10.4928 20.4193 10.5684 20.4941C10.6973 20.6191 10.8594 20.6875 11.0332 20.6875ZM12.3496 17.2812L19.4336 10.1992L20.8652 11.6309L13.7812 18.7129L12.0449 19.0195L12.3496 17.2812ZM23.1875 22.3281H8.8125C8.4668 22.3281 8.1875 22.6074 8.1875 22.9531V23.6562C8.1875 23.7422 8.25781 23.8125 8.34375 23.8125H23.6562C23.7422 23.8125 23.8125 23.7422 23.8125 23.6562V22.9531C23.8125 22.6074 23.5332 22.3281 23.1875 22.3281Z" fill="#6157FF"/>
</svg>
