<svg width="72" height="72" viewBox="0 0 72 72" fill="none" xmlns="http://www.w3.org/2000/svg">
<circle cx="36" cy="36" r="36" fill="#1CD44C" fill-opacity="0.1"/>
<path d="M46.5 49.5V46.5C46.5 44.9087 45.8679 43.3826 44.7426 42.2574C43.6174 41.1321 42.0913 40.5 40.5 40.5H31.5C29.9087 40.5 28.3826 41.1321 27.2574 42.2574C26.1321 43.3826 25.5 44.9087 25.5 46.5V49.5" stroke="#1CD44C" stroke-width="3" stroke-linecap="round" stroke-linejoin="round"/>
<path d="M36 34.5C39.3137 34.5 42 31.8137 42 28.5C42 25.1863 39.3137 22.5 36 22.5C32.6863 22.5 30 25.1863 30 28.5C30 31.8137 32.6863 34.5 36 34.5Z" stroke="#1CD44C" stroke-width="3" stroke-linecap="round" stroke-linejoin="round"/>
</svg>
