<svg width="32" height="33" viewBox="0 0 32 33" fill="none" xmlns="http://www.w3.org/2000/svg">
<rect x="31.5" y="32" width="31" height="31" rx="7.5" transform="rotate(-180 31.5 32)" fill="#F7F7FF"/>
<rect x="31.5" y="32" width="31" height="31" rx="7.5" transform="rotate(-180 31.5 32)" stroke="#D1CFEB"/>
<path d="M9.02734 16.9727L16.4062 23.377C16.4629 23.4258 16.5352 23.4531 16.6113 23.4531H18.3398C18.4844 23.4531 18.5508 23.2734 18.4414 23.1797L11.6016 17.2422H23.0312C23.1172 17.2422 23.1875 17.1719 23.1875 17.0859V15.9141C23.1875 15.8281 23.1172 15.7578 23.0312 15.7578L11.6035 15.7578L18.4434 9.82031C18.5527 9.72461 18.4863 9.54688 18.3418 9.54688H16.5547C16.5176 9.54688 16.4805 9.56055 16.4531 9.58594L9.02734 16.0273C8.95973 16.0861 8.90552 16.1588 8.86837 16.2403C8.83121 16.3218 8.81199 16.4104 8.81199 16.5C8.81199 16.5896 8.83121 16.6782 8.86837 16.7597C8.90552 16.8412 8.95973 16.9139 9.02734 16.9727Z" fill="#212025"/>
</svg>
