<svg width="48" height="48" viewBox="0 0 48 48" fill="none" xmlns="http://www.w3.org/2000/svg">
<g clip-path="url(#clip0_546_4483)">
<path d="M21.3133 26.6534H5.72515C4.49003 26.6534 3.47938 27.6639 3.47938 28.899V45.7546C3.47938 46.9897 4.49003 48.0002 5.72515 48.0002H21.5754C22.1038 48.0002 22.1038 47.4326 22.1038 47.4326V27.4165C22.1036 27.4165 22.1036 26.6534 21.3133 26.6534ZM42.2753 26.6534H26.7029C25.7545 26.6534 25.8965 27.6411 25.8965 27.6411V47.4509C25.8965 47.4509 25.8888 47.9997 26.4593 47.9997H42.2749C43.5101 47.9997 44.5207 46.9892 44.5207 45.7541V28.899C44.521 27.6639 43.5104 26.6534 42.2753 26.6534ZM22.1036 13.3912C22.1036 13.3912 22.1036 12.6302 21.3516 12.6302H3.18913C1.954 12.6302 0.943359 13.6408 0.943359 14.8758V21.8859C0.943359 23.121 1.954 24.1315 3.18913 24.1315H21.4131C22.1036 24.1315 22.1036 23.5326 22.1036 23.5326V13.3912ZM44.8111 12.6302H26.5907C25.8968 12.6302 25.8968 13.2914 25.8968 13.2914V23.5465C25.8968 23.5465 25.8968 24.1315 26.7404 24.1315H44.8111C46.0462 24.1315 47.0569 23.121 47.0569 21.8859V14.8758C47.0569 13.6408 46.0462 12.6302 44.8111 12.6302ZM14.4653 10.9687C13.4378 10.9687 12.4993 10.8872 11.6763 10.7264C9.58595 10.318 8.14926 9.52317 7.28407 8.29671C6.50886 7.19755 6.27162 5.8425 6.57872 4.26902C7.11669 1.51605 8.96553 0 11.7843 0C12.3808 0 13.0359 0.0688816 13.7316 0.204845C15.5013 0.550562 17.7647 1.5653 19.7865 2.9192C23.2167 5.21651 23.3863 6.6447 23.2155 7.51922C22.9644 8.80424 21.7633 9.72245 19.5435 10.3265C18.0438 10.7346 16.1929 10.9687 14.4653 10.9687ZM11.7844 3.59935C10.6928 3.59935 10.3176 3.90433 10.1116 4.95915C9.94312 5.82156 10.1557 6.12277 10.2254 6.22176C10.5172 6.6357 11.2776 6.98093 12.3664 7.19346C12.954 7.30832 13.6799 7.36902 14.4651 7.36902C16.1917 7.36902 17.7128 7.1074 18.7222 6.82124C18.7956 6.80046 18.9097 6.71358 18.7875 6.64077C17.4679 5.56583 15.0538 4.13044 13.0415 3.73728C12.5727 3.64598 12.1496 3.59935 11.7844 3.59935ZM33.587 10.9687H33.5867C31.8591 10.9687 30.0083 10.7346 28.5086 10.3265C26.2887 9.72261 25.0877 8.80424 24.8366 7.51938C24.666 6.64486 24.8353 5.21668 28.2658 2.91937C30.2872 1.56546 32.5507 0.550725 34.3207 0.205009C35.0164 0.0690452 35.6715 0.000163614 36.2675 0.000163614C39.0869 0.000163614 40.9356 1.51638 41.4731 4.26935C41.7805 5.84266 41.5434 7.19772 40.768 8.29688C39.9029 9.52349 38.4663 10.3182 36.3755 10.7265C35.5528 10.8871 34.6144 10.9687 33.587 10.9687ZM29.2935 6.61852C29.1765 6.68642 29.2331 6.79359 29.2938 6.8111C30.3026 7.10118 31.8398 7.36918 33.5867 7.36918C34.3722 7.36918 35.0978 7.30848 35.6855 7.19363C36.7742 6.98093 37.5349 6.63587 37.8266 6.22192C37.8966 6.12294 38.1093 5.82172 37.9403 4.95931C37.7345 3.90449 37.3591 3.59951 36.2673 3.59951C35.9023 3.59951 35.4795 3.64598 35.0105 3.7376C32.998 4.1306 30.613 5.54341 29.2935 6.61852Z" fill="#F7F7FF" fill-opacity="0.72"/>
</g>
<defs>
<clipPath id="clip0_546_4483">
<rect width="48" height="48" fill="white"/>
</clipPath>
</defs>
</svg>
