<svg width="19" height="20" viewBox="0 0 19 20" fill="none" xmlns="http://www.w3.org/2000/svg">
<path fill-rule="evenodd" clip-rule="evenodd" d="M14.8412 3.58605C14.8417 3.58618 14.842 3.58639 14.8428 3.58715L15.9132 4.65757C15.914 4.65833 15.9142 4.65868 15.9143 4.65912C15.9145 4.65954 15.9145 4.65999 15.9143 4.66041C15.9142 4.66083 15.914 4.66118 15.9132 4.66194L10.575 10.0002L15.9132 15.3384C15.914 15.3392 15.9142 15.3395 15.9143 15.34C15.9144 15.3404 15.9144 15.3408 15.9143 15.3413C15.9142 15.3417 15.914 15.342 15.9132 15.3428L14.8428 16.4132C14.842 16.414 14.8417 16.4142 14.8412 16.4143C14.8408 16.4145 14.8404 16.4145 14.84 16.4143C14.8395 16.4142 14.8392 16.414 14.8384 16.4132L9.50018 11.075L4.16194 16.4132C4.1612 16.414 4.16083 16.4142 4.16041 16.4143C4.15998 16.4144 4.15953 16.4144 4.15911 16.4143C4.1587 16.4142 4.15833 16.414 4.15757 16.4132L3.08715 15.3428C3.08639 15.342 3.08618 15.3417 3.08605 15.3412C3.0859 15.3408 3.0859 15.3404 3.08605 15.34C3.08618 15.3395 3.08639 15.3392 3.08715 15.3384L8.42537 10.0002L3.08715 4.66194C3.08639 4.6612 3.08618 4.66083 3.08605 4.66041C3.08592 4.65998 3.08592 4.65953 3.08605 4.65911C3.08618 4.6587 3.08639 4.65833 3.08715 4.65757L4.15757 3.58715C4.15833 3.58639 4.15868 3.58618 4.15912 3.58605C4.15954 3.5859 4.15999 3.5859 4.16041 3.58605C4.16083 3.58618 4.16118 3.58639 4.16194 3.58715L9.50018 8.92537L14.8384 3.58715C14.8392 3.58639 14.8395 3.58618 14.84 3.58605C14.8404 3.58592 14.8408 3.58592 14.8413 3.58605H14.8412Z" fill="#74737C"/>
</svg>
