<svg width="16" height="16" viewBox="0 0 16 16" fill="none" xmlns="http://www.w3.org/2000/svg">
<rect x="0.5" y="0.5" width="15" height="15" rx="7.5" fill="#F7F7FF"/>
<rect x="0.5" y="0.5" width="15" height="15" rx="7.5" stroke="#D1CFEB"/>
<path fill-rule="evenodd" clip-rule="evenodd" d="M11.3736 3.9488C11.3739 3.94888 11.3741 3.94901 11.3746 3.94949L12.0507 4.62555C12.0511 4.62603 12.0513 4.62625 12.0514 4.62653C12.0514 4.62679 12.0514 4.62708 12.0514 4.62734C12.0513 4.62761 12.0511 4.62783 12.0507 4.62831L8.67914 7.99983L12.0507 11.3714C12.0511 11.3718 12.0513 11.3721 12.0514 11.3723C12.0514 11.3726 12.0514 11.3729 12.0514 11.3731C12.0513 11.3734 12.0511 11.3736 12.0507 11.3741L11.3746 12.0502C11.3741 12.0507 11.3739 12.0508 11.3736 12.0509C11.3734 12.051 11.3731 12.051 11.3728 12.0509C11.3725 12.0508 11.3723 12.0507 11.3718 12.0502L8.00032 8.67865L4.6288 12.0502C4.62833 12.0507 4.6281 12.0508 4.62783 12.0509C4.62756 12.0509 4.62728 12.0509 4.62701 12.0509C4.62675 12.0508 4.62652 12.0507 4.62604 12.0502L3.94998 11.3741C3.9495 11.3736 3.94937 11.3734 3.94929 11.3731C3.94919 11.3729 3.94919 11.3726 3.94929 11.3723C3.94937 11.3721 3.9495 11.3718 3.94998 11.3714L7.32149 7.99983L3.94998 4.62831C3.9495 4.62785 3.94937 4.62761 3.94929 4.62734C3.94921 4.62707 3.94921 4.62679 3.94929 4.62652C3.94937 4.62626 3.9495 4.62603 3.94998 4.62555L4.62604 3.94949C4.62652 3.94901 4.62674 3.94888 4.62702 3.9488C4.62728 3.94871 4.62757 3.94871 4.62783 3.9488C4.6281 3.94888 4.62832 3.94901 4.6288 3.94949L8.00032 7.321L11.3718 3.94949C11.3723 3.94901 11.3725 3.94888 11.3728 3.9488C11.3731 3.94872 11.3734 3.94872 11.3736 3.9488H11.3736Z" fill="#F31E56"/>
</svg>
