<svg width="56" height="56" viewBox="0 0 56 56" fill="none" xmlns="http://www.w3.org/2000/svg">
<path d="M50.75 8.75H5.25C4.28203 8.75 3.5 9.53203 3.5 10.5V45.5C3.5 46.468 4.28203 47.25 5.25 47.25H50.75C51.718 47.25 52.5 46.468 52.5 45.5V10.5C52.5 9.53203 51.718 8.75 50.75 8.75ZM18.4844 16.625C20.4148 16.625 21.9844 18.1945 21.9844 20.125C21.9844 22.0555 20.4148 23.625 18.4844 23.625C16.5539 23.625 14.9844 22.0555 14.9844 20.125C14.9844 18.1945 16.5539 16.625 18.4844 16.625ZM46.5883 40.5289C46.5086 40.5959 46.408 40.6327 46.3039 40.6328H9.69062C9.45 40.6328 9.25312 40.4359 9.25312 40.1953C9.25312 40.0914 9.29141 39.993 9.35703 39.9109L18.6703 28.8641C18.8234 28.6781 19.1023 28.6562 19.2883 28.8094C19.3047 28.8258 19.3266 28.8422 19.343 28.8641L24.7789 35.3172L33.425 25.0633C33.5781 24.8773 33.857 24.8555 34.043 25.0086C34.0594 25.025 34.0812 25.0414 34.0977 25.0633L46.6539 39.9164C46.7961 40.0969 46.7742 40.3758 46.5883 40.5289Z" fill="#6157FF"/>
</svg>
