<svg width="36" height="36" viewBox="0 0 36 36" fill="none" xmlns="http://www.w3.org/2000/svg">
<g clip-path="url(#clip0_620_2833)">
<path d="M31.0909 0H4.90909C2.19787 0 0 2.19787 0 4.90909V31.0909C0 33.8021 2.19787 36 4.90909 36H31.0909C33.8021 36 36 33.8021 36 31.0909V4.90909C36 2.19787 33.8021 0 31.0909 0Z" fill="#29A71A"/>
<path d="M31.0909 0H4.90909C2.19787 0 0 2.19787 0 4.90909V31.0909C0 33.8021 2.19787 36 4.90909 36H31.0909C33.8021 36 36 33.8021 36 31.0909V4.90909C36 2.19787 33.8021 0 31.0909 0Z" fill="url(#paint0_linear_620_2833)"/>
<path d="M17.9972 4.70814C12.5507 4.70814 7.37871 4.22364 5.40321 9.29364C4.58721 11.3876 4.70571 14.1071 4.70571 18.0011C4.70571 21.4181 4.59621 24.6296 5.40321 26.7071C7.37421 31.7801 12.5882 31.2941 17.9942 31.2941C23.2097 31.2941 28.5872 31.8371 30.5867 26.7071C31.4042 24.5921 31.2842 21.9131 31.2842 18.0011C31.2842 12.8081 31.5707 9.45564 29.0522 6.93864C26.5022 4.38864 23.0537 4.70814 17.9912 4.70814H17.9972ZM16.8062 7.10364C28.1672 7.08564 29.6132 5.82264 28.8152 23.3681C28.5317 29.5736 23.8067 28.8926 17.9987 28.8926C7.40871 28.8926 7.10421 28.5896 7.10421 17.9951C7.10421 7.27764 7.94421 7.10964 16.8062 7.10064V7.10364ZM25.0922 9.31014C24.6693 9.31014 24.2638 9.47813 23.9647 9.77716C23.6657 10.0762 23.4977 10.4818 23.4977 10.9046C23.4977 11.3275 23.6657 11.7331 23.9647 12.0321C24.2638 12.3311 24.6693 12.4991 25.0922 12.4991C25.5151 12.4991 25.9207 12.3311 26.2197 12.0321C26.5187 11.7331 26.6867 11.3275 26.6867 10.9046C26.6867 10.4818 26.5187 10.0762 26.2197 9.77716C25.9207 9.47813 25.5151 9.31014 25.0922 9.31014ZM17.9972 11.1746C17.1008 11.1747 16.2133 11.3514 15.3852 11.6945C14.5571 12.0376 13.8047 12.5405 13.1709 13.1744C11.891 14.4546 11.172 16.1908 11.1722 18.0011C11.1724 19.8114 11.8917 21.5475 13.172 22.8275C14.4522 24.1074 16.1884 24.8263 17.9987 24.8261C19.809 24.8259 21.5451 24.1066 22.825 22.8264C24.105 21.5462 24.8239 19.8099 24.8237 17.9996C24.8235 16.1893 24.1042 14.4533 22.824 13.1733C21.5437 11.8934 19.8075 11.1744 17.9972 11.1746ZM17.9972 13.5701C23.8547 13.5701 23.8622 22.4321 17.9972 22.4321C12.1412 22.4321 12.1322 13.5701 17.9972 13.5701Z" fill="#F7F7FF"/>
</g>
<defs>
<linearGradient id="paint0_linear_620_2833" x1="2.4171" y1="33.6546" x2="35.7736" y2="4.77931" gradientUnits="userSpaceOnUse">
<stop stop-color="#FFDD55"/>
<stop offset="0.5" stop-color="#FF543E"/>
<stop offset="1" stop-color="#C837AB"/>
</linearGradient>
<clipPath id="clip0_620_2833">
<rect width="36" height="36" fill="white"/>
</clipPath>
</defs>
</svg>
