<svg width="39" height="38" viewBox="0 0 39 38" fill="none" xmlns="http://www.w3.org/2000/svg">
<rect x="38.332" y="38" width="38" height="38" rx="8" transform="rotate(-180 38.332 38)" fill="#F31E56" fill-opacity="0.1"/>
<path fill-rule="evenodd" clip-rule="evenodd" d="M24.6733 12.5861C24.6737 12.5862 24.6741 12.5864 24.6748 12.5871L25.7453 13.6576C25.746 13.6583 25.7462 13.6587 25.7463 13.6591C25.7465 13.6595 25.7465 13.66 25.7463 13.6604C25.7462 13.6608 25.746 13.6612 25.7453 13.6619L20.407 19.0002L25.7453 24.3384C25.746 24.3392 25.7462 24.3395 25.7463 24.34C25.7465 24.3404 25.7465 24.3408 25.7463 24.3413C25.7462 24.3417 25.746 24.342 25.7453 24.3428L24.6748 25.4132C24.6741 25.414 24.6737 25.4142 24.6733 25.4143C24.6729 25.4145 24.6724 25.4145 24.672 25.4143C24.6716 25.4142 24.6712 25.414 24.6705 25.4132L19.3322 20.075L13.994 25.4132C13.9932 25.414 13.9929 25.4142 13.9924 25.4143C13.992 25.4144 13.9916 25.4144 13.9911 25.4143C13.9907 25.4142 13.9904 25.414 13.9896 25.4132L12.9192 24.3428C12.9184 24.342 12.9182 24.3417 12.9181 24.3412C12.9179 24.3408 12.9179 24.3404 12.9181 24.34C12.9182 24.3395 12.9184 24.3392 12.9192 24.3384L18.2574 19.0002L12.9192 13.6619C12.9184 13.6612 12.9182 13.6608 12.9181 13.6604C12.918 13.66 12.918 13.6595 12.9181 13.6591C12.9182 13.6587 12.9184 13.6583 12.9192 13.6576L13.9896 12.5871C13.9904 12.5864 13.9907 12.5862 13.9912 12.5861C13.9916 12.5859 13.992 12.5859 13.9924 12.5861C13.9929 12.5862 13.9932 12.5864 13.994 12.5871L19.3322 17.9254L24.6705 12.5871C24.6712 12.5864 24.6716 12.5862 24.672 12.5861C24.6724 12.5859 24.6729 12.5859 24.6733 12.5861H24.6733Z" fill="#F31E56"/>
</svg>
