<svg width="36" height="36" viewBox="0 0 36 36" fill="none" xmlns="http://www.w3.org/2000/svg">
<g clip-path="url(#clip0_620_2826)">
<path d="M31.0909 0H4.90909C2.19787 0 0 2.19787 0 4.90909V31.0909C0 33.8021 2.19787 36 4.90909 36H31.0909C33.8021 36 36 33.8021 36 31.0909V4.90909C36 2.19787 33.8021 0 31.0909 0Z" fill="#29A71A"/>
<path d="M25.9362 10.0635C24.0634 8.17203 21.5764 7.01208 18.9238 6.79283C16.2711 6.57358 13.6274 7.30948 11.4695 8.86778C9.31165 10.4261 7.78166 12.7042 7.15553 15.2912C6.5294 17.8782 6.84834 20.6038 8.05483 22.9764L6.87051 28.7262C6.85822 28.7834 6.85787 28.8426 6.86948 28.8999C6.8811 28.9573 6.90443 29.0117 6.93801 29.0596C6.9872 29.1324 7.05742 29.1884 7.13929 29.2202C7.22116 29.252 7.31078 29.258 7.39619 29.2376L13.0314 27.9019C15.3973 29.0778 18.1037 29.3763 20.669 28.7441C23.2343 28.1119 25.4921 26.5901 27.0406 24.4495C28.5892 22.3089 29.3281 19.6883 29.1259 17.054C28.9236 14.4197 27.7934 11.9426 25.9362 10.0635ZM24.1791 24.0871C22.8834 25.3792 21.2149 26.2322 19.4087 26.5257C17.6025 26.8193 15.7497 26.5387 14.1114 25.7235L13.326 25.3348L9.87119 26.153L9.88142 26.1101L10.5973 22.6328L10.2128 21.8739C9.3757 20.2299 9.08041 18.3632 9.36921 16.5411C9.65801 14.719 10.5161 13.0351 11.8205 11.7305C13.4595 10.092 15.6822 9.17151 17.9998 9.17151C20.3174 9.17151 22.5401 10.092 24.1791 11.7305C24.1931 11.7465 24.2081 11.7616 24.2241 11.7755C25.8429 13.4183 26.7465 15.6343 26.7381 17.9406C26.7296 20.2468 25.8098 22.4562 24.1791 24.0871Z" fill="#F7F7FF"/>
<path d="M23.8725 21.5366C23.4491 22.2034 22.7803 23.0195 21.9396 23.222C20.4669 23.5779 18.2066 23.2343 15.3941 20.612L15.3594 20.5813C12.8864 18.2884 12.2441 16.38 12.3996 14.8663C12.4855 14.0072 13.2014 13.23 13.8048 12.7227C13.9002 12.6413 14.0133 12.5833 14.1351 12.5534C14.257 12.5235 14.3841 12.5226 14.5063 12.5506C14.6286 12.5786 14.7426 12.6349 14.8392 12.7148C14.9358 12.7948 15.0124 12.8963 15.0628 13.0111L15.973 15.0566C16.0321 15.1892 16.0541 15.3354 16.0364 15.4796C16.0188 15.6237 15.9622 15.7603 15.8728 15.8747L15.4125 16.472C15.3138 16.5953 15.2542 16.7454 15.2414 16.9029C15.2287 17.0603 15.2633 17.218 15.341 17.3556C15.5987 17.8077 16.2164 18.4725 16.9016 19.0881C17.6707 19.7836 18.5237 20.4197 19.0637 20.6366C19.2082 20.6956 19.367 20.71 19.5198 20.6779C19.6725 20.6458 19.8122 20.5687 19.9207 20.4566L20.4546 19.9186C20.5576 19.817 20.6857 19.7446 20.8258 19.7086C20.966 19.6727 21.1131 19.6746 21.2523 19.7141L23.4144 20.3277C23.5336 20.3643 23.6429 20.4276 23.734 20.513C23.825 20.5983 23.8953 20.7033 23.9395 20.8199C23.9837 20.9366 24.0007 21.0618 23.9891 21.186C23.9775 21.3102 23.9376 21.4301 23.8725 21.5366Z" fill="#F7F7FF"/>
</g>
<defs>
<clipPath id="clip0_620_2826">
<rect width="36" height="36" fill="white"/>
</clipPath>
</defs>
</svg>
