<svg width="32" height="32" viewBox="0 0 32 32" fill="none" xmlns="http://www.w3.org/2000/svg">
<circle cx="16" cy="16" r="16" fill="#F31E56" fill-opacity="0.3"/>
<path d="M32 16C32 19.1645 31.0616 22.2579 29.3035 24.8891C27.5454 27.5203 25.0466 29.5711 22.1229 30.7821C19.1993 31.9931 15.9823 32.3099 12.8786 31.6926C9.77486 31.0752 6.92393 29.5513 4.68629 27.3137C2.44865 25.0761 0.924799 22.2251 0.307435 19.1214C-0.309928 16.0177 0.00692538 12.8007 1.21793 9.87706C2.42893 6.95345 4.47969 4.45459 7.11088 2.69649C9.74206 0.938384 12.8355 -3.77363e-08 16 0V16H32Z" fill="#F31E56" fill-opacity="0.5"/>
<path d="M32 16C32 20.2435 30.3143 24.3131 27.3137 27.3137C24.3131 30.3143 20.2435 32 16 32C11.7565 32 7.68687 30.3143 4.68629 27.3137C1.68571 24.3131 6.40745e-07 20.2435 0 16L16 16H32Z" fill="#F31E56"/>
</svg>
