<svg width="32" height="32" viewBox="0 0 32 32" fill="none" xmlns="http://www.w3.org/2000/svg">
<rect x="0.5" y="0.5" width="31" height="31" rx="7.5" fill="#F7F7FF"/>
<rect x="0.5" y="0.5" width="31" height="31" rx="7.5" stroke="#D1CFEB"/>
<path fill-rule="evenodd" clip-rule="evenodd" d="M21.3412 9.58605C21.3417 9.58618 21.342 9.58639 21.3428 9.58715L22.4132 10.6576C22.414 10.6583 22.4142 10.6587 22.4143 10.6591C22.4145 10.6595 22.4145 10.66 22.4143 10.6604C22.4142 10.6608 22.414 10.6612 22.4132 10.6619L17.075 16.0002L22.4132 21.3384C22.414 21.3392 22.4142 21.3395 22.4143 21.34C22.4144 21.3404 22.4144 21.3408 22.4143 21.3413C22.4142 21.3417 22.414 21.342 22.4132 21.3428L21.3428 22.4132C21.342 22.414 21.3417 22.4142 21.3412 22.4143C21.3408 22.4145 21.3404 22.4145 21.34 22.4143C21.3395 22.4142 21.3392 22.414 21.3384 22.4132L16.0002 17.075L10.6619 22.4132C10.6612 22.414 10.6608 22.4142 10.6604 22.4143C10.66 22.4144 10.6595 22.4144 10.6591 22.4143C10.6587 22.4142 10.6583 22.414 10.6576 22.4132L9.58715 21.3428C9.58639 21.342 9.58618 21.3417 9.58605 21.3412C9.5859 21.3408 9.5859 21.3404 9.58605 21.34C9.58618 21.3395 9.58639 21.3392 9.58715 21.3384L14.9254 16.0002L9.58715 10.6619C9.58639 10.6612 9.58618 10.6608 9.58605 10.6604C9.58592 10.66 9.58592 10.6595 9.58605 10.6591C9.58618 10.6587 9.58639 10.6583 9.58715 10.6576L10.6576 9.58715C10.6583 9.58639 10.6587 9.58618 10.6591 9.58605C10.6595 9.5859 10.66 9.5859 10.6604 9.58605C10.6608 9.58618 10.6612 9.58639 10.6619 9.58715L16.0002 14.9254L21.3384 9.58715C21.3392 9.58639 21.3395 9.58618 21.34 9.58605C21.3404 9.58592 21.3408 9.58592 21.3413 9.58605H21.3412Z" fill="#212025"/>
</svg>
