<svg width="12" height="13" viewBox="0 0 12 13" fill="none" xmlns="http://www.w3.org/2000/svg">
<path d="M3 2.4125C3 2.08114 3.26864 1.8125 3.6 1.8125H11.4C11.7314 1.8125 12 2.08114 12 2.4125C12 2.74386 11.7314 3.0125 11.4 3.0125H3.6C3.26864 3.0125 3 2.74384 3 2.4125ZM11.4 5.4125H0.6C0.268641 5.4125 0 5.68116 0 6.0125C0 6.34386 0.268641 6.6125 0.6 6.6125H11.4C11.7314 6.6125 12 6.34386 12 6.0125C12 5.68116 11.7314 5.4125 11.4 5.4125ZM11.4 9.0125H6C5.66866 9.0125 5.4 9.28114 5.4 9.6125C5.4 9.94384 5.66866 10.2125 6 10.2125H11.4C11.7314 10.2125 12 9.94384 12 9.6125C12 9.28114 11.7314 9.0125 11.4 9.0125Z" fill="#212025"/>
</svg>
