<svg width="12" height="12" viewBox="0 0 12 12" fill="none" xmlns="http://www.w3.org/2000/svg">
<path d="M3 2.3998C3 2.06845 3.26864 1.7998 3.6 1.7998H11.4C11.7314 1.7998 12 2.06845 12 2.3998C12 2.73116 11.7314 2.9998 11.4 2.9998H3.6C3.26864 2.9998 3 2.73114 3 2.3998ZM11.4 5.3998H0.6C0.268641 5.3998 0 5.66847 0 5.9998C0 6.33116 0.268641 6.5998 0.6 6.5998H11.4C11.7314 6.5998 12 6.33116 12 5.9998C12 5.66847 11.7314 5.3998 11.4 5.3998ZM11.4 8.9998H6C5.66866 8.9998 5.4 9.26845 5.4 9.5998C5.4 9.93114 5.66866 10.1998 6 10.1998H11.4C11.7314 10.1998 12 9.93114 12 9.5998C12 9.26845 11.7314 8.9998 11.4 8.9998Z" fill="#F7F7FF"/>
</svg>
