<svg width="264" height="36" viewBox="0 0 264 36" fill="none" xmlns="http://www.w3.org/2000/svg">
<path fill-rule="evenodd" clip-rule="evenodd" d="M18 36C27.9411 36 36 27.9411 36 18C36 8.05887 27.9411 0 18 0C8.05887 0 0 8.05887 0 18C0 27.9411 8.05887 36 18 36ZM26.0612 28.6485C27.1662 27.9138 27.1565 26.3684 26.2183 25.4301C25.2801 24.4919 23.7652 24.5381 22.5738 25.1222C22.0097 25.3988 21.4092 25.6028 20.7863 25.7267C19.372 26.0081 17.906 25.8637 16.5738 25.3118C15.2415 24.76 14.1028 23.8255 13.3017 22.6265C12.5005 21.4275 12.0729 20.0178 12.0729 18.5758C12.0729 17.1338 12.5005 15.7241 13.3017 14.5251C14.1028 13.3261 15.2415 12.3916 16.5738 11.8398C17.906 11.2879 19.372 11.1435 20.7863 11.4249C21.4092 11.5487 22.0097 11.7528 22.5738 12.0294C23.7652 12.6135 25.2801 12.6597 26.2183 11.7214C27.1565 10.7832 27.1662 9.23774 26.0612 8.5031C24.7525 7.63295 23.2802 7.02182 21.7237 6.71222C19.3774 6.2455 16.9453 6.48504 14.735 7.40056C12.5247 8.31607 10.6356 9.86645 9.30649 11.8556C7.97737 13.8448 7.26795 16.1834 7.26795 18.5758C7.26795 20.9682 7.97737 23.3068 9.30649 25.296C10.6356 27.2851 12.5248 28.8355 14.735 29.751C16.9453 30.6665 19.3774 30.9061 21.7237 30.4394C23.2802 30.1298 24.7525 29.5186 26.0612 28.6485Z" fill="url(#paint0_linear_84_3916)"/>
<path d="M45.8461 30.3581C44.9168 30.3581 44.0931 30.1047 43.375 29.5978C42.6569 29.091 42.0973 28.4045 41.696 27.5386C41.2947 26.6516 41.0941 25.6378 41.0941 24.4974V7.20009C41.0941 6.73545 41.2419 6.35529 41.5376 6.05961C41.8333 5.76393 42.2134 5.61609 42.6781 5.61609C43.1427 5.61609 43.5229 5.76393 43.8185 6.05961C44.1142 6.35529 44.2621 6.73545 44.2621 7.20009V24.4974C44.2621 25.2788 44.4099 25.923 44.7056 26.4298C45.0013 26.9367 45.3814 27.1902 45.8461 27.1902H46.6381C47.0605 27.1902 47.3984 27.338 47.6518 27.6337C47.9264 27.9293 48.0636 28.3095 48.0636 28.7741C48.0636 29.2388 47.863 29.6189 47.4617 29.9146C47.0604 30.2103 46.543 30.3581 45.9094 30.3581H45.8461Z" fill="#3B3B3B"/>
<path d="M57.4894 30.4849C55.9477 30.4849 54.5643 30.1047 53.3394 29.3444C52.1144 28.563 51.1429 27.5175 50.4248 26.2081C49.7278 24.8775 49.3794 23.378 49.3794 21.7095C49.3794 20.041 49.7595 18.5415 50.5198 17.211C51.3013 15.8804 52.3467 14.835 53.6562 14.0746C54.9867 13.2932 56.4757 12.9025 58.123 12.9025C59.7704 12.9025 61.2488 13.2932 62.5582 14.0746C63.8677 14.835 64.9025 15.8804 65.6629 17.211C66.4443 18.5415 66.835 20.041 66.835 21.7095H65.5995C65.5995 23.378 65.2405 24.8775 64.5224 26.2081C63.8254 27.5175 62.8645 28.563 61.6395 29.3444C60.4145 30.1047 59.0312 30.4849 57.4894 30.4849ZM58.123 27.6337C59.2001 27.6337 60.1611 27.3802 61.0059 26.8734C61.8507 26.3454 62.516 25.6378 63.0017 24.7508C63.4875 23.8426 63.7304 22.8289 63.7304 21.7095C63.7304 20.569 63.4875 19.5553 63.0017 18.6682C62.516 17.7601 61.8507 17.0526 61.0059 16.5457C60.1611 16.0177 59.2001 15.7537 58.123 15.7537C57.067 15.7537 56.1061 16.0177 55.2402 16.5457C54.3954 17.0526 53.7195 17.7601 53.2126 18.6682C52.7269 19.5553 52.484 20.569 52.484 21.7095C52.484 22.8289 52.7269 23.8426 53.2126 24.7508C53.7195 25.6378 54.3954 26.3454 55.2402 26.8734C56.1061 27.3802 57.067 27.6337 58.123 27.6337ZM65.2193 30.3898C64.7547 30.3898 64.364 30.242 64.0472 29.9463C63.7515 29.6295 63.6037 29.2388 63.6037 28.7741V23.9271L64.2056 20.569L66.835 21.7095V28.7741C66.835 29.2388 66.6766 29.6295 66.3598 29.9463C66.0641 30.242 65.684 30.3898 65.2193 30.3898Z" fill="#3B3B3B"/>
<path d="M73.1965 19.5236C73.1965 18.2564 73.5027 17.1265 74.1152 16.1338C74.7488 15.1201 75.5936 14.3175 76.6496 13.7262C77.7056 13.1348 78.8672 12.8391 80.1344 12.8391C81.4016 12.8391 82.3415 13.0503 82.9539 13.4727C83.5875 13.874 83.8304 14.3598 83.6826 14.93C83.6192 15.2257 83.4925 15.458 83.3024 15.627C83.1335 15.7748 82.9328 15.8698 82.7005 15.9121C82.4682 15.9543 82.2147 15.9438 81.9402 15.8804C80.5885 15.6058 79.3741 15.5847 78.297 15.817C77.2199 16.0494 76.3645 16.4823 75.7309 17.1159C75.1184 17.7495 74.8122 18.5521 74.8122 19.5236H73.1965ZM73.2282 30.3581C72.7213 30.3581 72.3306 30.2314 72.056 29.978C71.7815 29.7034 71.6442 29.3021 71.6442 28.7741V14.6132C71.6442 14.1063 71.7815 13.7156 72.056 13.441C72.3306 13.1665 72.7213 13.0292 73.2282 13.0292C73.7562 13.0292 74.1469 13.1665 74.4003 13.441C74.6749 13.6945 74.8122 14.0852 74.8122 14.6132V28.7741C74.8122 29.281 74.6749 29.6717 74.4003 29.9463C74.1469 30.2209 73.7562 30.3581 73.2282 30.3581Z" fill="#3B3B3B"/>
<path d="M93.3554 30.4849C91.877 30.4849 90.5042 30.2631 89.237 29.8196C87.9909 29.3549 87.0194 28.7741 86.3224 28.0772C86.0056 27.7393 85.8683 27.3591 85.9106 26.9367C85.9739 26.4932 86.1851 26.1342 86.5442 25.8596C86.9666 25.5217 87.3784 25.3844 87.7797 25.4478C88.2021 25.49 88.5611 25.6695 88.8568 25.9863C89.2158 26.3876 89.7861 26.7678 90.5675 27.1268C91.3701 27.4647 92.2571 27.6337 93.2286 27.6337C94.4536 27.6337 95.3829 27.433 96.0165 27.0318C96.6712 26.6305 97.0091 26.113 97.0302 25.4794C97.0514 24.8458 96.7451 24.2967 96.1115 23.8321C95.499 23.3674 94.3691 22.9873 92.7218 22.6916C90.5886 22.2692 89.0363 21.6356 88.0648 20.7908C87.1144 19.946 86.6392 18.9111 86.6392 17.6862C86.6392 16.609 86.956 15.722 87.5896 15.025C88.2232 14.307 89.0363 13.779 90.029 13.441C91.0216 13.082 92.0565 12.9025 93.1336 12.9025C94.5275 12.9025 95.763 13.1242 96.8402 13.5678C97.9173 14.0113 98.7726 14.6238 99.4062 15.4052C99.7019 15.7431 99.8392 16.1022 99.8181 16.4823C99.797 16.8414 99.6174 17.1476 99.2795 17.401C98.9416 17.6334 98.5403 17.7073 98.0757 17.6228C97.611 17.5383 97.2203 17.3482 96.9035 17.0526C96.3755 16.5457 95.8053 16.1972 95.1928 16.0071C94.5803 15.817 93.8728 15.722 93.0702 15.722C92.141 15.722 91.349 15.8804 90.6942 16.1972C90.0606 16.514 89.7438 16.9786 89.7438 17.5911C89.7438 17.9713 89.8389 18.3198 90.029 18.6366C90.2402 18.9322 90.6414 19.2068 91.2328 19.4602C91.8242 19.6926 92.6901 19.9249 93.8306 20.1572C95.4146 20.474 96.6606 20.8753 97.5688 21.361C98.4981 21.8468 99.1634 22.417 99.5646 23.0718C99.9659 23.7054 100.167 24.4446 100.167 25.2894C100.167 26.2609 99.9026 27.1374 99.3746 27.9188C98.8677 28.7002 98.1074 29.3233 97.0936 29.7879C96.101 30.2525 94.8549 30.4849 93.3554 30.4849Z" fill="#3B3B3B"/>
<path d="M116.8 0L116.8 36" stroke="#212025"/>
<path d="M137.72 15.18C135.056 15.18 133.22 13.416 133.22 10.8C133.22 8.184 135.056 6.42 137.72 6.42C138.98 6.42 139.916 6.792 140.684 7.344L139.916 8.436C139.424 8.076 138.668 7.692 137.672 7.692C135.908 7.692 134.588 8.904 134.588 10.8C134.588 12.696 135.908 13.908 137.672 13.908C138.668 13.908 139.424 13.524 139.916 13.164L140.684 14.256C139.916 14.808 138.98 15.18 137.72 15.18ZM143.068 13.824H146.68V15H141.82V6.6H146.62V7.776H143.068V9.768H146.344V10.944H143.068V13.824ZM150.922 6.6C152.59 6.6 153.526 7.692 153.526 9.144C153.526 10.584 152.59 11.688 150.922 11.688H149.302V15H148.054V6.6H150.922ZM150.754 10.512C151.618 10.512 152.182 10.044 152.182 9.144C152.182 8.244 151.618 7.776 150.754 7.776H149.302V10.512H150.754ZM158.95 10.536C159.982 10.692 160.642 11.46 160.642 12.612C160.642 14.184 159.466 15 158.062 15H154.546V6.6H157.738C159.202 6.6 160.186 7.404 160.186 8.736C160.186 9.576 159.754 10.26 158.95 10.512V10.536ZM157.474 7.776H155.794V10.104H157.366C158.35 10.104 158.83 9.684 158.83 8.94C158.83 8.148 158.278 7.776 157.474 7.776ZM157.81 13.824C158.758 13.824 159.286 13.296 159.286 12.528C159.286 11.772 158.782 11.232 157.69 11.232H155.794V13.824H157.81ZM161.964 6.6H163.212V12.936H163.236L167.364 6.6H168.672V15H167.424V8.664H167.4L163.272 15H161.964V6.6ZM174.435 15.18C171.771 15.18 169.935 13.416 169.935 10.8C169.935 8.184 171.771 6.42 174.435 6.42C175.695 6.42 176.631 6.792 177.399 7.344L176.631 8.436C176.139 8.076 175.383 7.692 174.387 7.692C172.623 7.692 171.303 8.904 171.303 10.8C171.303 12.696 172.623 13.908 174.387 13.908C175.383 13.908 176.139 13.524 176.631 13.164L177.399 14.256C176.631 14.808 175.695 15.18 174.435 15.18ZM188.039 14.004H188.879V16.68H187.727V15.18H182.387V16.68H181.235V14.004H182.063C182.615 12.876 182.807 11.88 182.807 10.344V6.6H188.039V14.004ZM184.055 10.296C184.055 11.784 183.863 12.84 183.419 14.004H186.791V7.776H184.055V10.296ZM196.773 6.6V15H195.525V7.776H191.805V12.936C191.805 14.388 191.181 15.06 189.969 15.06H189.417V13.848H189.849C190.317 13.848 190.557 13.656 190.557 12.936V6.6H196.773ZM200.895 6.6H203.883V15H202.635V11.508H201.759L199.311 15H197.739L200.283 11.46C199.107 11.244 198.327 10.344 198.327 9.072C198.327 7.524 199.419 6.6 200.895 6.6ZM201.099 10.332H202.635V7.776H201.099C200.091 7.776 199.671 8.328 199.671 9.072C199.671 9.792 200.091 10.332 201.099 10.332ZM212.998 6.42C215.494 6.42 217.378 8.22 217.378 10.8C217.378 13.38 215.494 15.18 212.998 15.18C210.502 15.18 208.618 13.38 208.618 10.8C208.618 8.22 210.502 6.42 212.998 6.42ZM212.998 7.692C211.222 7.692 209.986 9 209.986 10.8C209.986 12.6 211.222 13.908 212.998 13.908C214.774 13.908 216.01 12.6 216.01 10.8C216.01 9 214.774 7.692 212.998 7.692ZM224.324 6.6H225.572V15H224.324V11.172H219.884V15H218.636V6.6H219.884V9.972H224.324V6.6ZM233.945 6.6V15H232.697V7.776H228.977V12.936C228.977 14.388 228.353 15.06 227.141 15.06H226.589V13.848H227.021C227.489 13.848 227.729 13.656 227.729 12.936V6.6H233.945ZM241.496 15L240.692 12.912H237.02L236.216 15H234.848L238.28 6.6H239.432L242.864 15H241.496ZM237.464 11.76H240.248L238.856 8.16L237.464 11.76ZM248.741 4.644C248.717 5.688 248.117 6.324 247.109 6.324C246.101 6.324 245.501 5.688 245.477 4.644H246.281C246.269 5.28 246.557 5.628 247.109 5.628C247.661 5.628 247.949 5.28 247.937 4.644H248.741ZM243.761 6.6H245.009V12.936H245.033L249.161 6.6H250.469V15H249.221V8.664H249.197L245.069 15H243.761V6.6ZM257.84 6.6H259.088V15H257.84V11.172H253.4V15H252.152V6.6H253.4V9.972H257.84V6.6ZM136.292 20.42C138.032 20.42 138.956 21.212 138.956 22.508C138.956 23.504 138.404 24.248 137.216 24.512V24.536C138.32 24.68 139.256 25.34 139.256 26.708C139.256 28.076 138.332 29.18 136.076 29.18C134.84 29.18 133.88 28.844 133.1 28.4L133.676 27.248C134.48 27.728 135.308 27.98 136.148 27.98C137.264 27.98 137.972 27.536 137.972 26.648C137.972 25.664 137.12 25.196 135.548 25.196H134.72V23.996H135.536C136.796 23.996 137.66 23.588 137.66 22.7C137.66 21.932 137.012 21.62 136.124 21.62C135.152 21.62 134.336 21.992 133.772 22.316L133.208 21.224C133.928 20.816 135.056 20.42 136.292 20.42ZM146.211 29L145.407 26.912H141.735L140.931 29H139.563L142.995 20.6H144.147L147.579 29H146.211ZM142.179 25.76H144.963L143.571 22.16L142.179 25.76ZM155.292 20.6V29H154.044V21.776H149.724V29H148.476V20.6H155.292ZM156.972 20.6H158.22V26.936H158.244L162.372 20.6H163.68V29H162.432V22.664H162.408L158.28 29H156.972V20.6ZM169.443 29.18C166.779 29.18 164.943 27.416 164.943 24.8C164.943 22.184 166.779 20.42 169.443 20.42C170.703 20.42 171.639 20.792 172.407 21.344L171.639 22.436C171.147 22.076 170.391 21.692 169.395 21.692C167.631 21.692 166.311 22.904 166.311 24.8C166.311 26.696 167.631 27.908 169.395 27.908C170.391 27.908 171.147 27.524 171.639 27.164L172.407 28.256C171.639 28.808 170.703 29.18 169.443 29.18ZM173.542 20.6H174.79V26.936H174.814L178.942 20.6H180.25V29H179.002V22.664H178.978L174.85 29H173.542V20.6Z" fill="#212025"/>
<defs>
<linearGradient id="paint0_linear_84_3916" x1="5.10806" y1="1.728" x2="37.94" y2="42.336" gradientUnits="userSpaceOnUse">
<stop stop-color="#6157FF"/>
<stop offset="1" stop-color="#5D55DD"/>
</linearGradient>
</defs>
</svg>
