<svg width="287" height="36" viewBox="0 0 287 36" fill="none" xmlns="http://www.w3.org/2000/svg">
<path fill-rule="evenodd" clip-rule="evenodd" d="M18 36C27.9411 36 36 27.9411 36 18C36 8.05887 27.9411 0 18 0C8.05887 0 0 8.05887 0 18C0 27.9411 8.05887 36 18 36ZM26.0612 28.6485C27.1662 27.9138 27.1565 26.3684 26.2183 25.4301C25.2801 24.4919 23.7652 24.5381 22.5738 25.1222C22.0097 25.3988 21.4092 25.6028 20.7863 25.7267C19.372 26.0081 17.906 25.8637 16.5738 25.3118C15.2415 24.76 14.1028 23.8255 13.3017 22.6265C12.5005 21.4275 12.0729 20.0178 12.0729 18.5758C12.0729 17.1338 12.5005 15.7241 13.3017 14.5251C14.1028 13.3261 15.2415 12.3916 16.5738 11.8398C17.906 11.2879 19.372 11.1435 20.7863 11.4249C21.4092 11.5487 22.0097 11.7528 22.5738 12.0294C23.7652 12.6135 25.2801 12.6597 26.2183 11.7214C27.1565 10.7832 27.1662 9.23774 26.0612 8.5031C24.7525 7.63295 23.2802 7.02182 21.7237 6.71222C19.3774 6.2455 16.9453 6.48504 14.735 7.40056C12.5247 8.31607 10.6356 9.86645 9.30649 11.8556C7.97737 13.8448 7.26795 16.1834 7.26795 18.5758C7.26795 20.9682 7.97737 23.3068 9.30649 25.296C10.6356 27.2851 12.5248 28.8355 14.735 29.751C16.9453 30.6665 19.3774 30.9061 21.7237 30.4394C23.2802 30.1298 24.7525 29.5186 26.0612 28.6485Z" fill="#F7F7FF"/>
<path d="M45.8457 30.3583C44.9165 30.3583 44.0928 30.1048 43.3747 29.598C42.6566 29.0911 42.0969 28.4047 41.6957 27.5388C41.2944 26.6517 41.0938 25.638 41.0938 24.4975V7.20021C41.0938 6.73557 41.2416 6.35541 41.5373 6.05973C41.8329 5.76405 42.2131 5.61621 42.6777 5.61621C43.1424 5.61621 43.5225 5.76405 43.8182 6.05973C44.1139 6.35541 44.2617 6.73557 44.2617 7.20021V24.4975C44.2617 25.2789 44.4096 25.9231 44.7053 26.43C45.0009 26.9368 45.3811 27.1903 45.8457 27.1903H46.6377C47.0601 27.1903 47.3981 27.3381 47.6515 27.6338C47.9261 27.9295 48.0633 28.3096 48.0633 28.7743C48.0633 29.2389 47.8627 29.6191 47.4614 29.9148C47.0601 30.2104 46.5427 30.3583 45.9091 30.3583H45.8457Z" fill="#F7F7FF"/>
<path d="M57.4891 30.485C55.9474 30.485 54.564 30.1048 53.339 29.3445C52.1141 28.5631 51.1426 27.5176 50.4245 26.2082C49.7275 24.8776 49.3791 23.3781 49.3791 21.7096C49.3791 20.0412 49.7592 18.5416 50.5195 17.2111C51.301 15.8805 52.3464 14.8351 53.6558 14.0748C54.9864 13.2933 56.4754 12.9026 58.1227 12.9026C59.7701 12.9026 61.2485 13.2933 62.5579 14.0748C63.8674 14.8351 64.9022 15.8805 65.6626 17.2111C66.444 18.5416 66.8347 20.0412 66.8347 21.7096H65.5992C65.5992 23.3781 65.2402 24.8776 64.5221 26.2082C63.8251 27.5176 62.8642 28.5631 61.6392 29.3445C60.4142 30.1048 59.0309 30.485 57.4891 30.485ZM58.1227 27.6338C59.1998 27.6338 60.1608 27.3804 61.0056 26.8735C61.8504 26.3455 62.5157 25.638 63.0014 24.7509C63.4872 23.8428 63.7301 22.829 63.7301 21.7096C63.7301 20.5692 63.4872 19.5554 63.0014 18.6684C62.5157 17.7602 61.8504 17.0527 61.0056 16.5458C60.1608 16.0178 59.1998 15.7538 58.1227 15.7538C57.0667 15.7538 56.1058 16.0178 55.2398 16.5458C54.395 17.0527 53.7192 17.7602 53.2123 18.6684C52.7266 19.5554 52.4837 20.5692 52.4837 21.7096C52.4837 22.829 52.7266 23.8428 53.2123 24.7509C53.7192 25.638 54.395 26.3455 55.2398 26.8735C56.1058 27.3804 57.0667 27.6338 58.1227 27.6338ZM65.219 30.3899C64.7544 30.3899 64.3637 30.2421 64.0469 29.9464C63.7512 29.6296 63.6034 29.2389 63.6034 28.7743V23.9272L64.2053 20.5692L66.8347 21.7096V28.7743C66.8347 29.2389 66.6763 29.6296 66.3595 29.9464C66.0638 30.2421 65.6837 30.3899 65.219 30.3899Z" fill="#F7F7FF"/>
<path d="M73.1962 19.5237C73.1962 18.2565 73.5024 17.1266 74.1149 16.134C74.7485 15.1202 75.5933 14.3176 76.6493 13.7263C77.7053 13.1349 78.8669 12.8392 80.1341 12.8392C81.4013 12.8392 82.3412 13.0504 82.9536 13.4728C83.5872 13.8741 83.8301 14.3599 83.6823 14.9301C83.6189 15.2258 83.4922 15.4581 83.3021 15.6271C83.1332 15.7749 82.9325 15.87 82.7002 15.9122C82.4679 15.9544 82.2144 15.9439 81.9399 15.8805C80.5882 15.606 79.3738 15.5848 78.2967 15.8172C77.2196 16.0495 76.3642 16.4824 75.7306 17.116C75.1181 17.7496 74.8119 18.5522 74.8119 19.5237H73.1962ZM73.2279 30.3583C72.721 30.3583 72.3303 30.2316 72.0557 29.9781C71.7812 29.7036 71.6439 29.3023 71.6439 28.7743V14.6133C71.6439 14.1064 71.7812 13.7157 72.0557 13.4412C72.3303 13.1666 72.721 13.0293 73.2279 13.0293C73.7559 13.0293 74.1466 13.1666 74.4 13.4412C74.6746 13.6946 74.8119 14.0853 74.8119 14.6133V28.7743C74.8119 29.2812 74.6746 29.6719 74.4 29.9464C74.1466 30.221 73.7559 30.3583 73.2279 30.3583Z" fill="#F7F7FF"/>
<path d="M93.3551 30.485C91.8767 30.485 90.5039 30.2632 89.2367 29.8197C87.9906 29.3551 87.0191 28.7743 86.3221 28.0773C86.0053 27.7394 85.868 27.3592 85.9103 26.9368C85.9736 26.4933 86.1848 26.1343 86.5439 25.8597C86.9663 25.5218 87.3781 25.3845 87.7794 25.4479C88.2018 25.4901 88.5608 25.6696 88.8565 25.9864C89.2155 26.3877 89.7858 26.7679 90.5672 27.1269C91.3698 27.4648 92.2568 27.6338 93.2283 27.6338C94.4533 27.6338 95.3826 27.4332 96.0162 27.0319C96.6709 26.6306 97.0088 26.1132 97.0299 25.4796C97.0511 24.846 96.7448 24.2968 96.1112 23.8322C95.4987 23.3676 94.3688 22.9874 92.7215 22.6917C90.5883 22.2693 89.036 21.6357 88.0645 20.7909C87.1141 19.9461 86.6389 18.9112 86.6389 17.6863C86.6389 16.6092 86.9557 15.7221 87.5893 15.0252C88.2229 14.3071 89.036 13.7791 90.0287 13.4412C91.0213 13.0821 92.0562 12.9026 93.1333 12.9026C94.5272 12.9026 95.7627 13.1244 96.8399 13.5679C97.917 14.0114 98.7723 14.6239 99.4059 15.4053C99.7016 15.7432 99.8389 16.1023 99.8178 16.4824C99.7966 16.8415 99.6171 17.1477 99.2792 17.4012C98.9413 17.6335 98.54 17.7074 98.0754 17.6229C97.6107 17.5384 97.22 17.3484 96.9032 17.0527C96.3752 16.5458 95.805 16.1973 95.1925 16.0072C94.58 15.8172 93.8725 15.7221 93.0699 15.7221C92.1407 15.7221 91.3487 15.8805 90.6939 16.1973C90.0603 16.5141 89.7435 16.9788 89.7435 17.5912C89.7435 17.9714 89.8386 18.3199 90.0287 18.6367C90.2399 18.9324 90.6411 19.2069 91.2325 19.4604C91.8239 19.6927 92.6898 19.925 93.8303 20.1573C95.4143 20.4741 96.6603 20.8754 97.5685 21.3612C98.4978 21.8469 99.1631 22.4172 99.5643 23.0719C99.9656 23.7055 100.166 24.4447 100.166 25.2895C100.166 26.261 99.9023 27.1375 99.3743 27.9189C98.8674 28.7004 98.1071 29.3234 97.0933 29.788C96.1007 30.2527 94.8546 30.485 93.3551 30.485Z" fill="#F7F7FF"/>
<path d="M116.8 0L116.8 36" stroke="#F7F7FF"/>
<path d="M138.54 14.21C135.432 14.21 133.29 12.152 133.29 9.1C133.29 6.048 135.432 3.99 138.54 3.99C140.01 3.99 141.102 4.424 141.998 5.068L141.102 6.342C140.528 5.922 139.646 5.474 138.484 5.474C136.426 5.474 134.886 6.888 134.886 9.1C134.886 11.312 136.426 12.726 138.484 12.726C139.646 12.726 140.528 12.278 141.102 11.858L141.998 13.132C141.102 13.776 140.01 14.21 138.54 14.21ZM145.793 7.322C147.767 7.322 148.887 8.68 148.887 10.766V10.99H143.875C143.931 12.138 144.729 12.894 145.835 12.894C146.899 12.894 147.501 12.194 147.823 11.76L148.789 12.67C148.313 13.328 147.459 14.21 145.863 14.21C143.805 14.21 142.489 12.824 142.489 10.78C142.489 8.82 143.721 7.322 145.793 7.322ZM145.709 8.582C144.785 8.582 144.113 9.058 143.945 9.996H147.403C147.347 9.1 146.689 8.582 145.709 8.582ZM150.142 16.8V7.532H151.514V8.484H151.542C151.948 7.784 152.662 7.322 153.726 7.322C155.434 7.322 156.876 8.61 156.876 10.766C156.876 12.922 155.434 14.21 153.726 14.21C152.662 14.21 151.948 13.748 151.542 13.048H151.514V16.8H150.142ZM153.432 12.866C154.636 12.866 155.42 11.998 155.42 10.766C155.42 9.534 154.636 8.666 153.432 8.666C152.228 8.666 151.444 9.534 151.444 10.766C151.444 11.998 152.228 12.866 153.432 12.866ZM162.424 10.626C163.278 10.738 163.824 11.214 163.824 12.18C163.824 13.454 162.676 14 161.5 14H158.14V7.532H161.612C162.774 7.532 163.628 8.106 163.628 9.156C163.628 9.926 163.25 10.43 162.424 10.612V10.626ZM161.304 8.652H159.512V10.108H161.318C161.864 10.108 162.2 9.856 162.2 9.352C162.2 8.918 161.878 8.652 161.304 8.652ZM161.374 12.88C161.99 12.88 162.41 12.6 162.41 12.054C162.41 11.466 162.06 11.2 161.5 11.2H159.512V12.88H161.374ZM165.153 14V7.532H166.525V11.83H166.553L169.759 7.532H171.033V14H169.661V9.702H169.633L166.427 14H165.153ZM175.85 14.21C173.764 14.21 172.294 12.824 172.294 10.766C172.294 8.708 173.764 7.322 175.85 7.322C176.69 7.322 177.404 7.546 178.062 7.98L177.418 9.142C176.97 8.862 176.41 8.652 175.808 8.652C174.562 8.652 173.75 9.548 173.75 10.766C173.75 11.984 174.562 12.88 175.808 12.88C176.41 12.88 176.97 12.67 177.418 12.39L178.062 13.552C177.404 13.986 176.69 14.21 175.85 14.21ZM188.617 12.95H189.527V15.82H188.323V14.21H183.605V15.82H182.401V12.95H183.241C183.577 12.348 183.773 11.76 183.773 10.864V7.532H185.145H188.085H188.617V12.95ZM185.145 10.948C185.145 11.816 184.977 12.39 184.697 12.95H187.245V8.792H185.145V10.948ZM196.309 7.532V14H194.937V8.82H192.277V12.222C192.277 13.482 191.577 14.098 190.555 14.098H189.883V12.852H190.331C190.779 12.852 190.905 12.614 190.905 12.208V7.532H196.309ZM199.925 7.532H203.215V14H201.843V11.662H200.863L199.015 14H197.363L199.295 11.606C198.231 11.41 197.601 10.654 197.601 9.632C197.601 8.428 198.469 7.532 199.925 7.532ZM200.079 10.43H201.843V8.792H200.079C199.421 8.792 199.057 9.072 199.057 9.604C199.057 10.15 199.421 10.43 200.079 10.43ZM213.053 7.532H214.565L210.533 16.8H209.077L210.631 13.412L207.915 7.532H209.553L211.331 11.774L213.053 7.532ZM221.234 7.532V14H219.862V8.82H216.852V14H215.48V7.532H216.852H221.234ZM222.917 16.8V7.532H224.289V8.484H224.317C224.723 7.784 225.437 7.322 226.501 7.322C228.209 7.322 229.651 8.61 229.651 10.766C229.651 12.922 228.209 14.21 226.501 14.21C225.437 14.21 224.723 13.748 224.317 13.048H224.289V16.8H222.917ZM226.207 12.866C227.411 12.866 228.195 11.998 228.195 10.766C228.195 9.534 227.411 8.666 226.207 8.666C225.003 8.666 224.219 9.534 224.219 10.766C224.219 11.998 225.003 12.866 226.207 12.866ZM233.645 14.21C231.937 14.21 230.495 12.922 230.495 10.766C230.495 8.61 231.937 7.322 233.645 7.322C234.709 7.322 235.423 7.784 235.829 8.484H235.857V7.532H237.229V14H235.857V13.048H235.829C235.423 13.748 234.709 14.21 233.645 14.21ZM233.939 12.866C235.143 12.866 235.927 11.998 235.927 10.766C235.927 9.534 235.143 8.666 233.939 8.666C232.735 8.666 231.951 9.534 231.951 10.766C231.951 11.998 232.735 12.866 233.939 12.866ZM243.197 10.626C244.051 10.738 244.597 11.214 244.597 12.18C244.597 13.454 243.449 14 242.273 14H238.913V7.532H242.385C243.547 7.532 244.401 8.106 244.401 9.156C244.401 9.926 244.023 10.43 243.197 10.612V10.626ZM242.077 8.652H240.285V10.108H242.091C242.637 10.108 242.973 9.856 242.973 9.352C242.973 8.918 242.651 8.652 242.077 8.652ZM242.147 12.88C242.763 12.88 243.183 12.6 243.183 12.054C243.183 11.466 242.833 11.2 242.273 11.2H240.285V12.88H242.147ZM251.585 7.532V14H250.213V8.82H247.553V12.222C247.553 13.482 246.853 14.098 245.831 14.098H245.159V12.852H245.607C246.055 12.852 246.181 12.614 246.181 12.208V7.532H251.585ZM256.153 7.322C258.127 7.322 259.247 8.68 259.247 10.766V10.99H254.235C254.291 12.138 255.089 12.894 256.195 12.894C257.259 12.894 257.861 12.194 258.183 11.76L259.149 12.67C258.673 13.328 257.819 14.21 256.223 14.21C254.165 14.21 252.849 12.824 252.849 10.78C252.849 8.82 254.081 7.322 256.153 7.322ZM256.069 8.582C255.145 8.582 254.473 9.058 254.305 9.996H257.763C257.707 9.1 257.049 8.582 256.069 8.582ZM265.163 7.532H266.535V14H265.163V11.284H261.873V14H260.501V7.532H261.873V9.996H265.163V7.532ZM268.212 14V7.532H269.584V11.83H269.612L272.818 7.532H274.092V14H272.72V9.702H272.692L269.486 14H268.212ZM277.705 7.532H280.995V14H279.623V11.662H278.643L276.795 14H275.143L277.075 11.606C276.011 11.41 275.381 10.654 275.381 9.632C275.381 8.428 276.249 7.532 277.705 7.532ZM277.859 10.43H279.623V8.792H277.859C277.201 8.792 276.837 9.072 276.837 9.604C276.837 10.15 277.201 10.43 277.859 10.43ZM136.832 30.21C134.844 30.21 133.22 29.034 133.22 25.954C133.22 24.498 133.528 22.566 134.928 21.67C135.656 21.208 136.86 20.984 137.7 20.746C138.064 20.648 138.428 20.48 138.442 20.144H139.8C139.8 21.208 139.38 21.6 138.512 21.852C137.714 22.09 136.412 22.272 135.698 22.664C134.886 23.112 134.564 24.008 134.452 25.086H134.494C134.97 23.994 135.964 23.406 137.238 23.406C139.142 23.406 140.388 24.736 140.388 26.696C140.388 28.754 139.03 30.21 136.832 30.21ZM136.846 28.866C137.994 28.866 138.932 28.082 138.932 26.766C138.932 25.45 137.994 24.666 136.846 24.666C135.698 24.666 134.76 25.45 134.76 26.766C134.76 28.082 135.698 28.866 136.846 28.866ZM141.652 30V23.532H143.024V27.83H143.052L146.258 23.532H147.532V30H146.16V25.702H146.132L142.926 30H141.652ZM151.326 30.21C150.29 30.21 149.366 30 148.652 29.594L149.226 28.418C149.772 28.712 150.5 28.95 151.368 28.95C152.292 28.95 152.936 28.712 152.936 28.068C152.936 27.382 152.362 27.2 151.578 27.2H150.234V26.01H151.48C152.236 26.01 152.67 25.8 152.67 25.31C152.67 24.834 152.25 24.582 151.41 24.582C150.696 24.582 149.87 24.806 149.296 25.03L148.834 23.798C149.478 23.56 150.472 23.322 151.494 23.322C153.174 23.322 154.098 23.938 154.098 24.988C154.098 25.814 153.51 26.388 152.6 26.514V26.556C153.608 26.64 154.308 27.144 154.308 28.194C154.308 29.44 153.356 30.21 151.326 30.21ZM160.231 23.532H161.603V30H160.231V27.284H156.941V30H155.569V23.532H156.941V25.996H160.231V23.532ZM166.164 23.322C168.138 23.322 169.258 24.68 169.258 26.766V26.99H164.246C164.302 28.138 165.1 28.894 166.206 28.894C167.27 28.894 167.872 28.194 168.194 27.76L169.16 28.67C168.684 29.328 167.83 30.21 166.234 30.21C164.176 30.21 162.86 28.824 162.86 26.78C162.86 24.82 164.092 23.322 166.164 23.322ZM166.08 24.582C165.156 24.582 164.484 25.058 164.316 25.996H167.774C167.718 25.1 167.06 24.582 166.08 24.582ZM173.649 30.21C171.563 30.21 170.093 28.824 170.093 26.766C170.093 24.708 171.563 23.322 173.649 23.322C174.489 23.322 175.203 23.546 175.861 23.98L175.217 25.142C174.769 24.862 174.209 24.652 173.607 24.652C172.361 24.652 171.549 25.548 171.549 26.766C171.549 27.984 172.361 28.88 173.607 28.88C174.209 28.88 174.769 28.67 175.217 28.39L175.861 29.552C175.203 29.986 174.489 30.21 173.649 30.21ZM179.678 23.322C181.708 23.322 183.22 24.778 183.22 26.766C183.22 28.754 181.708 30.21 179.678 30.21C177.648 30.21 176.136 28.754 176.136 26.766C176.136 24.778 177.648 23.322 179.678 23.322ZM179.678 24.666C178.446 24.666 177.592 25.492 177.592 26.766C177.592 28.04 178.446 28.866 179.678 28.866C180.91 28.866 181.764 28.04 181.764 26.766C181.764 25.492 180.91 24.666 179.678 24.666ZM183.582 30L185.36 23.532H186.606L188.006 26.976H188.034L189.448 23.532H190.694L192.472 30H191.086L189.966 25.562H189.938L188.51 28.978H187.544L186.116 25.562H186.088L184.968 30H183.582Z" fill="#F7F7FF"/>
</svg>
