<svg width="236" height="37" viewBox="0 0 236 37" fill="none" xmlns="http://www.w3.org/2000/svg">
<path d="M0 27.7411V0H3.08234V27.7411H0Z" fill="#212025"/>
<path d="M17.4243 28.1264C15.4978 28.1264 13.8025 27.6768 12.3384 26.7778C10.8743 25.8788 9.73125 24.6587 8.90929 23.1176C8.11302 21.5507 7.71488 19.7912 7.71488 17.839C7.71488 15.8612 8.12586 14.1146 8.94782 12.5991C9.76978 11.0836 10.9 9.88918 12.3384 9.01585C13.8025 8.14252 15.4978 7.70585 17.4243 7.70585C19.3764 7.70585 21.0717 8.14252 22.5101 9.01585C23.9742 9.88918 25.1044 11.0836 25.9007 12.5991C26.7226 14.1146 27.1336 15.8612 27.1336 17.839C27.1336 19.7912 26.7226 21.5507 25.9007 23.1176C25.1044 24.6587 23.9742 25.8788 22.5101 26.7778C21.0717 27.6768 19.3764 28.1264 17.4243 28.1264ZM17.4243 25.5064C18.7599 25.5064 19.9158 25.1853 20.8919 24.5431C21.868 23.8753 22.6257 22.9634 23.1651 21.8076C23.7045 20.6517 23.9742 19.316 23.9742 17.8005C23.9742 15.5401 23.3706 13.7293 22.1634 12.3679C20.9818 11.0065 19.4021 10.3258 17.4243 10.3258C15.4721 10.3258 13.8924 11.0065 12.6852 12.3679C11.4779 13.7293 10.8743 15.5401 10.8743 17.8005C10.8743 19.316 11.144 20.6517 11.6834 21.8076C12.2228 22.9634 12.9805 23.8753 13.9566 24.5431C14.9584 25.1853 16.1143 25.5064 17.4243 25.5064Z" fill="#212025"/>
<path d="M39.578 36.0249C37.2405 36.0249 35.2884 35.4726 33.7215 34.3681C32.1804 33.2893 31.2428 31.8509 30.9089 30.0528H33.8371C34.1197 31.0803 34.749 31.8894 35.725 32.4802C36.7268 33.0966 38.0753 33.4049 39.7706 33.4049C41.7741 33.4049 43.2896 32.8526 44.3171 31.7481C45.3445 30.6693 45.8582 29.0767 45.8582 26.9705V22.7708L46.2435 22.8478C45.8069 24.3376 44.9335 25.5321 43.6235 26.4311C42.3135 27.3044 40.7595 27.7411 38.9615 27.7411C37.2405 27.7411 35.725 27.3301 34.4151 26.5081C33.1051 25.6605 32.0905 24.4918 31.3712 23.002C30.652 21.5122 30.2924 19.7784 30.2924 17.8005C30.2924 15.797 30.6649 14.0375 31.4098 12.522C32.1547 11.0065 33.195 9.8378 34.5306 9.01585C35.892 8.1682 37.4717 7.74438 39.2697 7.74438C41.1191 7.74438 42.6603 8.19389 43.8932 9.0929C45.1519 9.99192 45.9867 11.2762 46.3977 12.9458L46.0509 12.9844V8.09114H48.9406V26.9705C48.9406 29.7703 48.1058 31.9793 46.4362 33.5975C44.7666 35.2157 42.4805 36.0249 39.578 36.0249ZM39.7321 25.0825C41.6586 25.0825 43.1869 24.4147 44.3171 23.079C45.4473 21.7433 46.0124 19.9325 46.0124 17.6464C46.0124 15.4117 45.4473 13.6522 44.3171 12.3679C43.1869 11.0579 41.6586 10.4029 39.7321 10.4029C37.7799 10.4029 36.2388 11.0579 35.1086 12.3679C34.0041 13.6779 33.4518 15.4759 33.4518 17.762C33.4518 19.9967 34.0169 21.7819 35.1471 23.1176C36.2773 24.4276 37.8056 25.0825 39.7321 25.0825Z" fill="#212025"/>
<path d="M63.2906 28.1264C61.3642 28.1264 59.6689 27.6768 58.2048 26.7778C56.7407 25.8788 55.5976 24.6587 54.7757 23.1176C53.9794 21.5507 53.5813 19.7912 53.5813 17.839C53.5813 15.8612 53.9922 14.1146 54.8142 12.5991C55.6361 11.0836 56.7663 9.88918 58.2048 9.01585C59.6689 8.14252 61.3642 7.70585 63.2906 7.70585C65.2428 7.70585 66.9381 8.14252 68.3765 9.01585C69.8406 9.88918 70.9708 11.0836 71.7671 12.5991C72.589 14.1146 73 15.8612 73 17.839C73 19.7912 72.589 21.5507 71.7671 23.1176C70.9708 24.6587 69.8406 25.8788 68.3765 26.7778C66.9381 27.6768 65.2428 28.1264 63.2906 28.1264ZM63.2906 25.5064C64.6263 25.5064 65.7822 25.1853 66.7583 24.5431C67.7343 23.8753 68.4921 22.9634 69.0315 21.8076C69.5709 20.6517 69.8406 19.316 69.8406 17.8005C69.8406 15.5401 69.237 13.7293 68.0297 12.3679C66.8482 11.0065 65.2685 10.3258 63.2906 10.3258C61.3385 10.3258 59.7588 11.0065 58.5515 12.3679C57.3443 13.7293 56.7407 15.5401 56.7407 17.8005C56.7407 19.316 57.0104 20.6517 57.5498 21.8076C58.0892 22.9634 58.8469 23.8753 59.823 24.5431C60.8247 25.1853 61.9806 25.5064 63.2906 25.5064Z" fill="#212025"/>
<path d="M89 0L89 36.0249" stroke="#212025"/>
<path d="M109.92 15.1927C107.256 15.1927 105.42 13.4287 105.42 10.8127C105.42 8.1967 107.256 6.43269 109.92 6.43269C111.18 6.43269 112.116 6.8047 112.884 7.3567L112.116 8.44869C111.624 8.0887 110.868 7.70469 109.872 7.70469C108.108 7.70469 106.788 8.9167 106.788 10.8127C106.788 12.7087 108.108 13.9207 109.872 13.9207C110.868 13.9207 111.624 13.5367 112.116 13.1767L112.884 14.2687C112.116 14.8207 111.18 15.1927 109.92 15.1927ZM115.268 13.8367H118.88V15.0127H114.02V6.61269H118.82V7.78869H115.268V9.7807H118.544V10.9567H115.268V13.8367ZM123.122 6.61269C124.79 6.61269 125.726 7.70469 125.726 9.15669C125.726 10.5967 124.79 11.7007 123.122 11.7007H121.502V15.0127H120.254V6.61269H123.122ZM122.954 10.5247C123.818 10.5247 124.382 10.0567 124.382 9.15669C124.382 8.2567 123.818 7.78869 122.954 7.78869H121.502V10.5247H122.954ZM131.15 10.5487C132.182 10.7047 132.842 11.4727 132.842 12.6247C132.842 14.1967 131.666 15.0127 130.262 15.0127H126.746V6.61269H129.938C131.402 6.61269 132.386 7.4167 132.386 8.7487C132.386 9.5887 131.954 10.2727 131.15 10.5247V10.5487ZM129.674 7.78869H127.994V10.1167H129.566C130.55 10.1167 131.03 9.6967 131.03 8.9527C131.03 8.16069 130.478 7.78869 129.674 7.78869ZM130.01 13.8367C130.958 13.8367 131.486 13.3087 131.486 12.5407C131.486 11.7847 130.982 11.2447 129.89 11.2447H127.994V13.8367H130.01ZM134.164 6.61269H135.412V12.9487H135.436L139.564 6.61269H140.872V15.0127H139.624V8.6767H139.6L135.472 15.0127H134.164V6.61269ZM146.635 15.1927C143.971 15.1927 142.135 13.4287 142.135 10.8127C142.135 8.1967 143.971 6.43269 146.635 6.43269C147.895 6.43269 148.831 6.8047 149.599 7.3567L148.831 8.44869C148.339 8.0887 147.583 7.70469 146.587 7.70469C144.823 7.70469 143.503 8.9167 143.503 10.8127C143.503 12.7087 144.823 13.9207 146.587 13.9207C147.583 13.9207 148.339 13.5367 148.831 13.1767L149.599 14.2687C148.831 14.8207 147.895 15.1927 146.635 15.1927ZM160.239 14.0167H161.079V16.6927H159.927V15.1927H154.587V16.6927H153.435V14.0167H154.263C154.815 12.8887 155.007 11.8927 155.007 10.3567V6.61269H160.239V14.0167ZM156.255 10.3087C156.255 11.7967 156.063 12.8527 155.619 14.0167H158.991V7.78869H156.255V10.3087ZM168.974 6.61269V15.0127H167.726V7.78869H164.006V12.9487C164.006 14.4007 163.382 15.0727 162.17 15.0727H161.618V13.8607H162.05C162.518 13.8607 162.758 13.6687 162.758 12.9487V6.61269H168.974ZM173.095 6.61269H176.083V15.0127H174.835V11.5207H173.959L171.511 15.0127H169.939L172.483 11.4727C171.307 11.2567 170.527 10.3567 170.527 9.0847C170.527 7.5367 171.619 6.61269 173.095 6.61269ZM173.299 10.3447H174.835V7.78869H173.299C172.291 7.78869 171.871 8.34069 171.871 9.0847C171.871 9.8047 172.291 10.3447 173.299 10.3447ZM185.198 6.43269C187.694 6.43269 189.578 8.2327 189.578 10.8127C189.578 13.3927 187.694 15.1927 185.198 15.1927C182.702 15.1927 180.818 13.3927 180.818 10.8127C180.818 8.2327 182.702 6.43269 185.198 6.43269ZM185.198 7.70469C183.422 7.70469 182.186 9.0127 182.186 10.8127C182.186 12.6127 183.422 13.9207 185.198 13.9207C186.974 13.9207 188.21 12.6127 188.21 10.8127C188.21 9.0127 186.974 7.70469 185.198 7.70469ZM196.524 6.61269H197.772V15.0127H196.524V11.1847H192.084V15.0127H190.836V6.61269H192.084V9.98469H196.524V6.61269ZM206.145 6.61269V15.0127H204.897V7.78869H201.177V12.9487C201.177 14.4007 200.553 15.0727 199.341 15.0727H198.789V13.8607H199.221C199.689 13.8607 199.929 13.6687 199.929 12.9487V6.61269H206.145ZM213.696 15.0127L212.892 12.9247H209.22L208.416 15.0127H207.048L210.48 6.61269H211.632L215.064 15.0127H213.696ZM209.664 11.7727H212.448L211.056 8.17269L209.664 11.7727ZM220.941 4.65669C220.917 5.7007 220.317 6.33669 219.309 6.33669C218.301 6.33669 217.701 5.7007 217.677 4.65669H218.481C218.469 5.29269 218.757 5.6407 219.309 5.6407C219.861 5.6407 220.149 5.29269 220.137 4.65669H220.941ZM215.961 6.61269H217.209V12.9487H217.233L221.361 6.61269H222.669V15.0127H221.421V8.6767H221.397L217.269 15.0127H215.961V6.61269ZM230.04 6.61269H231.288V15.0127H230.04V11.1847H225.6V15.0127H224.352V6.61269H225.6V9.98469H230.04V6.61269ZM108.492 20.4327C110.232 20.4327 111.156 21.2247 111.156 22.5207C111.156 23.5167 110.604 24.2607 109.416 24.5247V24.5487C110.52 24.6927 111.456 25.3527 111.456 26.7207C111.456 28.0887 110.532 29.1927 108.276 29.1927C107.04 29.1927 106.08 28.8567 105.3 28.4127L105.876 27.2607C106.68 27.7407 107.508 27.9927 108.348 27.9927C109.464 27.9927 110.172 27.5487 110.172 26.6607C110.172 25.6767 109.32 25.2087 107.748 25.2087H106.92V24.0087H107.736C108.996 24.0087 109.86 23.6007 109.86 22.7127C109.86 21.9447 109.212 21.6327 108.324 21.6327C107.352 21.6327 106.536 22.0047 105.972 22.3287L105.408 21.2367C106.128 20.8287 107.256 20.4327 108.492 20.4327ZM118.411 29.0127L117.607 26.9247H113.935L113.131 29.0127H111.763L115.195 20.6127H116.347L119.779 29.0127H118.411ZM114.379 25.7727H117.163L115.771 22.1727L114.379 25.7727ZM127.492 20.6127V29.0127H126.244V21.7887H121.924V29.0127H120.676V20.6127H127.492ZM129.172 20.6127H130.42V26.9487H130.444L134.572 20.6127H135.88V29.0127H134.632V22.6767H134.608L130.48 29.0127H129.172V20.6127ZM141.643 29.1927C138.979 29.1927 137.143 27.4287 137.143 24.8127C137.143 22.1967 138.979 20.4327 141.643 20.4327C142.903 20.4327 143.839 20.8047 144.607 21.3567L143.839 22.4487C143.347 22.0887 142.591 21.7047 141.595 21.7047C139.831 21.7047 138.511 22.9167 138.511 24.8127C138.511 26.7087 139.831 27.9207 141.595 27.9207C142.591 27.9207 143.347 27.5367 143.839 27.1767L144.607 28.2687C143.839 28.8207 142.903 29.1927 141.643 29.1927ZM145.742 20.6127H146.99V26.9487H147.014L151.142 20.6127H152.45V29.0127H151.202V22.6767H151.178L147.05 29.0127H145.742V20.6127Z" fill="#212025"/>
</svg>
