<svg width="20" height="20" viewBox="0 0 20 20" fill="none" xmlns="http://www.w3.org/2000/svg">
<path d="M11.5625 3.43924V17.031C11.5625 17.117 11.6328 17.1873 11.7188 17.1873H12.8906C12.9766 17.1873 13.0469 17.117 13.0469 17.031V5.21072L16.6211 8.02908C16.7227 8.10916 16.875 8.0369 16.875 7.90604V6.49002C16.875 6.39432 16.832 6.30448 16.7559 6.24393L12.5742 2.94705C12.1641 2.62479 11.5625 2.9158 11.5625 3.43924ZM6.95313 2.96854L6.95312 14.7888L3.37891 11.9705C3.27734 11.8904 3.125 11.9627 3.125 12.0935V13.5096C3.125 13.6053 3.16797 13.6951 3.24414 13.7556L7.42578 17.0525C7.83594 17.3748 8.4375 17.0838 8.4375 16.5623V2.96854C8.4375 2.8826 8.36719 2.81229 8.28125 2.81229H7.10938C7.02344 2.81229 6.95313 2.8826 6.95313 2.96854Z" fill="#6157FF"/>
</svg>
