<svg width="16" height="17" viewBox="0 0 16 17" fill="none" xmlns="http://www.w3.org/2000/svg">
<g clip-path="url(#clip0_587_575)">
<path d="M8 0.0126953C3.58218 0.0126953 0 3.59418 0 8.01234C0 12.4305 3.58183 16.012 8 16.012C12.4185 16.012 16 12.4305 16 8.01234C16 3.59418 12.4185 0.0126953 8 0.0126953ZM8 2.40468C8.70178 2.40464 9.37483 2.68337 9.87109 3.17957C10.3674 3.67577 10.6462 4.34878 10.6462 5.05056C10.6463 5.75234 10.3675 6.42539 9.87134 6.92165C9.37514 7.41791 8.70213 7.69674 8.00035 7.69679C7.29857 7.69683 6.62552 7.4181 6.12926 6.9219C5.633 6.4257 5.35417 5.75269 5.35412 5.05091C5.35408 4.34913 5.63281 3.67608 6.12901 3.17982C6.62521 2.68355 7.29822 2.40473 8 2.40468ZM7.99824 13.9205C6.59639 13.922 5.24023 13.4219 4.175 12.5106C4.05103 12.4048 3.95147 12.2735 3.88316 12.1255C3.81485 11.9775 3.77942 11.8165 3.77932 11.6536C3.77932 10.1717 4.97865 8.98573 6.46086 8.98573H9.53984C11.0224 8.98573 12.2172 10.1717 12.2172 11.6536C12.2173 11.8165 12.182 11.9775 12.1137 12.1254C12.0454 12.2733 11.9459 12.4046 11.8218 12.5103C10.7567 13.422 9.4003 13.9222 7.99824 13.9205Z" fill="#212025"/>
</g>
<defs>
<clipPath id="clip0_587_575">
<rect width="16" height="16" fill="white" transform="translate(0 0.0126953)"/>
</clipPath>
</defs>
</svg>
