<svg width="16" height="16" viewBox="0 0 16 16" fill="none" xmlns="http://www.w3.org/2000/svg">
<path d="M8 0C3.58218 0 0 3.58148 0 7.99965C0 12.4178 3.58183 15.9993 8 15.9993C12.4185 15.9993 16 12.4178 16 7.99965C16 3.58148 12.4185 0 8 0ZM8 2.39199C8.70178 2.39194 9.37483 2.67068 9.87109 3.16687C10.3674 3.66307 10.6462 4.33609 10.6462 5.03786C10.6463 5.73964 10.3675 6.41269 9.87134 6.90896C9.37514 7.40522 8.70213 7.68404 8.00035 7.68409C7.29857 7.68414 6.62552 7.4054 6.12926 6.9092C5.633 6.41301 5.35417 5.73999 5.35412 5.03821C5.35408 4.33644 5.63281 3.66339 6.12901 3.16712C6.62521 2.67086 7.29822 2.39203 8 2.39199ZM7.99824 13.9078C6.59639 13.9093 5.24023 13.4092 4.175 12.4979C4.05103 12.3922 3.95147 12.2608 3.88316 12.1128C3.81485 11.9648 3.77942 11.8038 3.77932 11.6409C3.77932 10.159 4.97865 8.97303 6.46086 8.97303H9.53984C11.0224 8.97303 12.2172 10.159 12.2172 11.6409C12.2173 11.8038 12.182 11.9648 12.1137 12.1127C12.0454 12.2606 11.9459 12.3919 11.8218 12.4976C10.7567 13.4093 9.4003 13.9095 7.99824 13.9078Z" fill="#F7F7FF"/>
</svg>
