<svg width="24" height="24" viewBox="0 0 24 24" fill="none" xmlns="http://www.w3.org/2000/svg">
<g clip-path="url(#clip0_688_1740)">
<path d="M0 11.52C0 6.0894 0 3.37413 1.68707 1.68707C3.37413 0 6.0894 0 11.52 0H12.48C17.9106 0 20.6259 0 22.313 1.68707C24 3.37413 24 6.0894 24 11.52V12.48C24 17.9106 24 20.6259 22.313 22.313C20.6259 24 17.9106 24 12.48 24H11.52C6.0894 24 3.37413 24 1.68707 22.313C0 20.6259 0 17.9106 0 12.48V11.52Z" fill="#0077FF"/>
<path d="M17.593 15.7812L18.125 12.3125H14.7969V10.0616C14.7969 9.11244 15.2618 8.1875 16.7525 8.1875H18.2656V5.23438C18.2656 5.23438 16.8924 5 15.5794 5C12.8384 5 11.0469 6.66125 11.0469 9.66875V12.3125H8V15.7812H11.0469V24C11.5 24 12.3722 24.0002 13 24C13.6278 24.0002 14 24 14.7969 24V15.7812H17.593Z" fill="#F7F7FF"/>
</g>
<defs>
<clipPath id="clip0_688_1740">
<rect width="24" height="24" fill="white"/>
</clipPath>
</defs>
</svg>
