<svg width="24" height="24" viewBox="0 0 24 24" fill="none" xmlns="http://www.w3.org/2000/svg">
<g clip-path="url(#clip0_688_1744)">
<mask id="mask0_688_1744" style="mask-type:luminance" maskUnits="userSpaceOnUse" x="0" y="0" width="24" height="24">
<path d="M24 0H0V24H24V0Z" fill="white"/>
</mask>
<g mask="url(#mask0_688_1744)">
<path d="M0 11.52C0 6.0894 0 3.37413 1.68707 1.68707C3.37413 0 6.0894 0 11.52 0H12.48C17.9106 0 20.6259 0 22.313 1.68707C24 3.37413 24 6.0894 24 11.52V12.48C24 17.9106 24 20.6259 22.313 22.313C20.6259 24 17.9106 24 12.48 24H11.52C6.0894 24 3.37413 24 1.68707 22.313C0 20.6259 0 17.9106 0 12.48V11.52Z" fill="#0077FF"/>
<path d="M12.7288 17.2802C7.15284 17.2802 3.97248 13.4964 3.83997 7.2002H6.63302C6.72476 11.8215 8.78382 13.7789 10.4148 14.1825V7.2002H13.0449V11.1858C14.6555 11.0142 16.3474 9.19803 16.9182 7.2002H19.5482C19.1099 9.66218 17.2751 11.4784 15.9703 12.2251C17.2751 12.8305 19.3649 14.4146 20.16 17.2802H17.2649C16.6431 15.3631 15.0938 13.8798 13.0449 13.678V17.2802H12.7288Z" fill="#F7F7FF"/>
</g>
</g>
<defs>
<clipPath id="clip0_688_1744">
<rect width="24" height="24" fill="white"/>
</clipPath>
</defs>
</svg>
